<svg width="132" height="116" viewBox="0 0 132 116" fill="none" xmlns="http://www.w3.org/2000/svg">
<path fill-rule="evenodd" clip-rule="evenodd" d="M22.6235 -9.03846C22.698 -9.08121 22.7725 -9.12348 22.847 -9.16623C23.0272 -8.92478 23.166 -8.62843 23.3974 -8.45596C23.6497 -8.26795 24.07 -8.27087 24.2711 -8.05564C24.6914 -7.60578 25.2311 -7.40319 25.7498 -7.14376C25.9227 -6.33535 26.6781 -6.10751 27.2255 -5.67221C27.6546 -5.33068 28.0983 -5.00518 28.5074 -4.6413C28.6282 -4.53393 28.652 -4.31823 28.7202 -4.15208C28.2736 -4.33329 28.0286 -4.73992 27.5226 -4.60098C27.1471 -4.49749 27.1856 -4.83077 27.0438 -5.01489C26.9255 -5.16793 26.3995 -5.12712 26.3849 -5.22186C26.3055 -5.74606 25.8793 -5.82816 25.5355 -6.04532C25.1463 -6.29066 24.7314 -6.54232 24.4445 -6.88822C24.1547 -7.23801 23.7773 -7.21178 23.4378 -7.31331C23.5221 -7.52562 23.6029 -7.73063 23.7349 -8.06293H22.6235V-9.03846ZM150.598 -34.941C151.497 -34.4567 151.809 -33.5749 152.222 -32.7655C152.611 -32.0023 152.794 -31.139 153.146 -30.3748C153.541 -29.5159 153.742 -28.62 153.778 -27.7441C153.815 -26.8283 154.433 -25.9427 153.965 -24.988C153.832 -25.2154 153.68 -25.4175 153.593 -25.6444C153.534 -25.7979 153.592 -25.9917 153.554 -26.1579C153.419 -26.7608 153.265 -27.3593 153.119 -27.9593C152.961 -28.6064 152.65 -29.2249 152.747 -29.9201C152.059 -31.3537 151.8 -32.9652 150.906 -34.3138C150.778 -34.5067 150.699 -34.7316 150.598 -34.941ZM14.604 0.401772C14.4301 0.419262 14.3113 0.468327 14.266 0.429947C13.5116 -0.20599 12.7294 -0.815208 12.0256 -1.50459C10.5679 -2.93339 9.39903 -4.60947 8.31441 -6.31616C7.8259 -7.08473 7.25119 -7.86058 7.02521 -8.81862C6.92342 -9.25052 7.28529 -9.15335 7.33058 -9.35594C8.24086 -7.59533 9.05177 -5.77204 10.3395 -4.25725C11.6886 -2.67007 13.1502 -1.17715 14.604 0.401772ZM24.9617 -32.5706C24.7152 -32.4108 24.5116 -32.2733 24.3022 -32.1441C24.0928 -32.0144 23.878 -31.8934 23.6657 -31.7685C24.0119 -31.136 24.011 -31.1418 23.578 -30.829C23.409 -30.7065 23.164 -30.5545 23.1416 -30.3898C23.0525 -29.7441 22.6575 -30.1221 22.4739 -30.092C22.5143 -30.5584 22.5528 -30.9985 22.5908 -31.4382C22.0234 -31.8045 22.5718 -32.1757 22.6088 -32.5352C22.6322 -32.7591 22.808 -32.986 22.9702 -33.1614C23.0018 -33.1949 23.2872 -32.9938 23.4908 -32.8816C23.6398 -33.2012 23.7577 -33.4543 23.9486 -33.8639C23.5639 -33.707 23.3637 -33.6253 23.1674 -33.5452C22.9317 -34.1219 23.579 -33.9008 23.6301 -34.1393C23.6905 -34.4216 23.6442 -34.7267 23.6442 -35.112H25.4365C25.5213 -35.3388 25.5676 -35.4618 25.6815 -35.7659C25.7512 -34.7427 25.7512 -34.7427 25.3031 -34.3541C25.251 -34.5076 25.1984 -34.6611 25.1433 -34.8229C24.9052 -34.6004 24.6938 -34.4027 24.5053 -34.2268C24.2681 -34.3585 24.1235 -34.4386 23.8697 -34.5795C23.9856 -33.7643 24.574 -33.6122 24.9617 -33.311V-32.5706ZM42.3518 75.6061C42.5339 75.9651 42.7804 76.311 42.7263 76.3664C42.3508 76.7521 42.5539 77.2025 42.5222 77.6164C42.4881 78.0551 42.4136 78.5307 42.5422 78.9315C42.6756 79.3454 42.0532 79.6748 42.4993 80.0518C42.0805 80.3851 42.2802 80.8495 42.2549 81.2605C42.2276 81.7002 42.2485 82.1433 42.2485 82.5849C42.2485 84.2624 42.2514 85.9405 42.2446 87.618C42.2441 87.7851 42.1857 87.9518 42.154 88.1179C42.0556 87.4174 41.8019 86.7649 41.7527 86.1154C41.6344 84.5661 41.7707 83.0056 41.4746 81.4554C41.3494 80.8005 41.6241 80.1019 41.6651 79.4465C41.7444 78.1673 42.044 76.9576 42.3518 75.6061ZM42.0861 106.463C41.75 105.969 41.4251 105.576 41.1938 105.134C40.4345 103.686 39.1765 102.477 39.0401 100.723C39.0348 100.656 38.9145 100.604 38.8604 100.534C38.4625 100.023 38.2243 99.4455 38.2701 98.7945C38.3193 98.0959 38.0997 97.4712 37.823 96.8561C37.694 96.568 37.6297 96.3086 38.0193 96.0088C38.1941 96.2362 38.4235 96.4325 38.5151 96.6793C38.6578 97.0645 38.6753 97.494 38.801 97.8875C39.1497 98.9767 39.3562 100.118 39.966 101.116C40.0488 101.252 40.1418 101.44 40.1116 101.577C39.9582 102.279 40.342 102.898 40.6931 103.316C41.4188 104.18 41.5888 105.355 42.5156 106.035L42.0861 106.463ZM140.438 -36.533C141.05 -36.8502 141.553 -37.1111 142.062 -37.3749C142.149 -37.2971 142.278 -37.1815 142.403 -37.0703C142.31 -36.9648 142.228 -36.8735 142.182 -36.821C142.782 -36.3513 143.371 -35.8902 143.954 -35.434C143.906 -35.3752 143.741 -35.228 143.763 -35.1931C143.958 -34.8729 144.203 -34.5829 144.401 -34.2642C144.844 -33.551 145.353 -32.8465 144.954 -31.9084C144.377 -32.3039 144.064 -33.0953 143.233 -33.0195C143.319 -33.2405 143.507 -33.5005 143.444 -33.5981C143.146 -34.0582 142.855 -34.5936 142.415 -34.871C141.967 -35.1542 141.582 -35.5608 141.474 -35.9315C141.308 -36.5028 140.913 -36.326 140.438 -36.533ZM103.591 55.9291L103.404 55.7416C103.475 55.6794 103.551 55.5584 103.615 55.5647C104.128 55.6133 104.751 55.607 104.929 55.4224C105.63 54.6946 106.499 54.9818 107.256 55.1256C107.957 55.2587 108.597 55.7124 109.265 56.0219C109.476 56.1205 109.686 56.2522 109.908 56.2833C110.002 56.2964 110.119 56.0005 110.278 56.2429C110.383 56.4028 110.468 56.5752 110.699 56.9853C109.897 56.6666 109.369 57.5867 108.737 56.892C108.726 56.8803 108.423 57.0402 108.413 57.1364C108.376 57.4905 108.078 57.4764 107.94 57.3953C107.264 56.9994 106.513 57.2243 105.798 57.1116C105.755 56.8434 105.716 56.6005 105.705 56.533C105.523 56.7137 105.3 56.9357 105.116 57.1184C105.167 57.1359 105.322 57.1898 105.267 57.1709C105.093 57.3448 104.869 57.5683 104.677 57.7607C104.562 57.3448 104.97 56.5966 104.132 56.3333C103.721 56.671 103.288 56.7176 102.76 56.4761C103.064 56.276 103.328 56.1021 103.591 55.9291ZM100.011 60.3197C100.353 60.8483 100.93 60.1618 101.28 60.5898C101.694 60.1526 102.264 60.4213 102.756 60.2726C102.999 60.326 102.509 59.6095 103.132 59.9306C103.523 60.1327 104.061 60.053 104.591 60.1055C104.651 59.8018 104.705 59.5322 104.79 59.1032C104.9 59.4195 104.955 59.5735 105.019 59.7562C105.35 59.5376 105.677 59.3214 106.053 59.0741C105.981 58.8234 105.905 58.5552 105.824 58.272C106.337 57.9499 106.927 57.7993 107.733 58.0879C107.188 58.3463 106.756 58.5504 106.29 58.7709C106.427 59.0512 106.545 59.2917 106.663 59.5327C106.902 59.4175 106.731 58.6927 107.365 59.1479C107.257 59.3899 107.142 59.644 107.029 59.8951C107.129 59.9486 107.212 60.0239 107.246 60.0059C107.683 59.7761 108.114 59.5332 108.546 59.2932C108.949 60.0268 109.69 60.2949 110.572 60.5612C110.486 60.3144 110.424 60.1361 110.33 59.8669C110.582 59.7105 110.686 59.2145 111.229 59.2718C111.152 59.6848 111.079 60.072 111.009 60.4451C111.443 60.6389 111.504 60.755 111.366 61.0334C111.982 61.5173 112.087 60.5869 112.579 60.532C112.627 60.8483 112.665 61.0912 112.704 61.3443C112.971 61.304 113.111 60.96 113.478 61.2472C113.99 61.646 114.674 61.8238 115.182 62.2251C115.695 62.6303 116.1 62.4311 116.603 62.2076C116.621 62.4432 116.636 62.6522 116.66 62.966C117.355 62.8368 117.894 63.2896 118.516 63.4863C120.003 63.9566 121.431 64.5745 122.888 65.1182C124.19 65.604 125.462 66.1675 126.754 66.682C127.818 67.1062 128.882 67.5312 129.961 67.9146C131.426 68.4359 132.837 69.097 134.284 69.6635C135.414 70.1061 136.547 70.6079 137.673 71.0947C138.045 71.2556 138.378 71.582 138.854 71.464C138.954 71.4392 139.112 71.5033 139.197 71.5786C140.215 72.4925 141.665 72.4939 142.753 73.2571C142.816 73.3009 142.92 73.3203 142.995 73.3052C144.101 73.0871 144.909 73.8129 145.811 74.2069C147.246 74.8341 148.719 75.3331 150.24 75.6964C150.561 75.7727 150.904 75.8203 151.186 75.9738C151.453 76.1201 151.737 76.0122 151.971 76.1162C152.271 76.2498 152.576 76.4354 152.794 76.6754C153.101 77.0135 153.3 76.3212 153.66 76.672C153.922 76.9275 154.443 76.8964 154.801 77.0835C155.388 77.39 156.13 77.2671 156.641 77.7986C156.747 77.9089 157.101 77.8851 157.281 77.7991C157.606 77.6431 157.727 77.5911 157.931 78.0036C158.043 78.2295 158.59 78.2791 158.952 78.3369C160.103 78.5195 161.138 79.1798 162.34 79.1395C163.273 79.7856 164.403 79.719 165.439 79.993C165.677 80.0567 165.909 80.149 166.151 80.1951C166.602 80.2821 167.057 80.0858 167.526 80.4283C167.856 80.6698 168.457 80.2772 168.87 80.7121C168.95 80.7966 169.305 80.7174 169.465 80.6115C169.884 80.3321 169.679 80.7806 169.773 80.8296C169.923 80.9083 170.156 80.8214 170.314 80.8923C171.03 81.2159 171.782 81.3499 172.551 81.2508C173.91 81.0759 175.209 81.5894 176.561 81.5569C176.969 81.5472 177.387 81.8333 177.801 81.5244C178.569 81.9184 179.338 81.3582 180.104 81.5273C180.425 81.5977 180.807 81.8591 181.044 81.7585C181.672 81.4933 182.304 81.5681 182.939 81.5166C183.569 81.4646 184.194 81.3475 184.822 81.2596C184.906 81.2474 185.036 81.2669 185.066 81.2207C185.337 80.8073 185.772 81.0531 186.069 80.9487C186.746 80.7096 187.488 80.8602 188.131 80.4764C188.612 80.1893 189.058 79.9576 189.294 79.6617C189.382 79.8488 189.466 80.028 189.586 80.2816C190.557 79.5403 191.995 79.6568 192.805 78.3811H193.79C193.914 78.1615 194.012 77.8379 194.108 77.8384C194.785 77.8423 195.347 77.8054 195.298 76.8823C195.291 76.74 195.658 76.5777 196.103 76.2279C195.927 76.739 195.852 76.9586 195.719 77.3463C196.235 77.0043 196.606 76.775 196.958 76.5189C197.291 76.2775 197.666 76.0555 197.907 75.7377C198.189 75.368 198.663 75.2563 198.908 74.8565C199.127 74.4989 199.364 74.1374 199.662 73.8484C199.976 73.5452 200.135 73.1333 200.552 72.8787C200.829 72.7096 200.883 72.1762 201.041 71.7982C200.955 71.7064 200.837 71.5781 200.722 71.4543C200.619 71.5451 200.527 71.6267 200.314 71.8157C200.351 71.5402 200.323 71.361 200.399 71.2522C200.698 70.8183 201.168 70.6104 201.628 70.3893C201.814 70.2995 202.056 70.1843 202.122 70.0206C202.214 69.7923 202.099 69.4804 202.195 69.2554C202.271 69.0732 202.682 68.9639 202.68 68.8269C202.667 68.1356 203.152 67.5215 202.971 66.8166C203.47 65.6919 203.154 64.5051 203.235 63.3488C203.386 61.201 202.779 59.1761 202.07 57.2051C201.272 54.9835 200.097 52.9474 198.634 51.0682C197.615 49.7594 196.647 48.42 195.535 47.1792C194.013 45.4818 192.675 43.6284 191.392 41.7424C190.999 41.1657 190.805 40.4837 190.379 39.9021C189.978 39.3551 189.737 38.6691 189.524 38.0128C189.332 37.4225 189.256 36.7919 189.162 36.1744C189.087 35.6779 189.308 35.1411 188.905 34.6834C188.825 34.594 188.896 34.3473 188.938 34.1835C188.988 33.9873 189.139 33.8051 189.149 33.6122C189.297 30.7702 190.846 28.4188 193.023 26.8598C194.351 25.9081 195.772 25.1429 197.129 24.2616C199.042 23.0203 201.074 21.9855 202.976 20.7273C204.456 19.7488 206.023 18.903 207.549 17.9955C209.262 16.9777 211.083 16.1324 212.603 14.8105C213.439 14.6744 213.884 13.9049 214.615 13.5799C215.433 13.2165 215.981 12.4659 216.73 11.9718C217.588 11.4063 218.302 10.6241 219.082 9.93961C219.53 9.54561 219.871 9.04375 220.464 8.79307C220.767 8.66579 221.085 8.35778 221.202 8.05608C221.436 7.44638 221.96 7.12525 222.354 6.67781C224.241 4.53291 225.731 2.17328 226.643 -0.562866C227.021 -1.69386 227.151 -2.89481 227.677 -3.97576C227.493 -4.93671 227.987 -5.82965 227.951 -6.78138C227.915 -7.70735 228.11 -8.67462 227.904 -9.55396C227.595 -10.872 227.633 -12.2925 226.881 -13.4964C226.634 -15.3143 224.856 -18.5169 224.047 -19.7455C223.1 -21.184 221.816 -22.3306 220.538 -23.4373C219.891 -23.9974 219.105 -24.5449 218.177 -24.7509C217.579 -24.884 217.037 -25.1891 216.418 -25.3354C215.851 -25.4694 215.411 -25.5865 214.856 -25.364C214.651 -25.2819 214.341 -25.5078 214.075 -25.5243C213.59 -25.5545 213.098 -25.5695 212.616 -25.5209C212.255 -25.4845 211.918 -25.1342 211.535 -25.4636C211.125 -25.0521 210.599 -25.4014 210.159 -25.2576C209.773 -25.1313 209.429 -24.8763 209.044 -24.7465C208.42 -24.5376 207.775 -24.3909 207.143 -24.2044C206.948 -24.147 206.748 -24.0732 206.582 -23.96C205.578 -23.2764 204.379 -23.0763 203.277 -22.6405C202.1 -22.1741 200.861 -21.8452 199.726 -21.2783C198.916 -20.8731 198.043 -20.6224 197.215 -20.2887C196.343 -19.9374 195.505 -19.4982 194.617 -19.1858C192.795 -18.545 191.11 -17.6055 189.371 -16.7854C187.149 -15.7375 184.931 -14.6794 182.722 -13.6057C178.852 -11.7265 174.996 -9.82115 171.122 -7.9522C170.166 -7.49067 169.187 -7.04518 168.171 -6.75368C167.679 -6.61231 167.29 -6.30332 166.808 -6.1877C166.083 -6.01426 165.364 -5.81556 164.636 -5.66496C164.059 -5.54544 163.425 -5.59014 162.897 -5.36958C161.967 -4.98141 160.963 -4.9678 160.01 -4.65736C159.005 -4.32992 157.927 -4.7623 157.075 -5.47403C156.703 -5.78495 156.394 -6.16875 156.035 -6.49669C154.629 -7.78217 154.294 -9.31833 154.88 -11.1066C155.138 -11.8946 155.449 -12.6792 155.418 -13.5348C155.952 -14.023 155.408 -14.8193 155.93 -15.3109C155.817 -16.285 156.099 -17.2479 155.747 -18.2618C155.513 -18.9322 155.303 -19.713 155.402 -20.517C155.656 -22.5628 155.216 -24.5955 155.09 -26.6291C155.003 -28.0409 154.642 -29.4794 154.239 -30.8854C153.965 -31.8429 153.529 -32.7266 153.196 -33.6434C152.822 -34.6704 152.089 -35.5774 151.455 -36.4976C150.121 -38.4331 148.345 -39.9046 146.382 -41.1673C144.961 -42.0816 143.476 -42.8822 141.866 -43.4021C141.197 -43.6178 140.46 -43.6877 139.794 -43.8709C139.056 -44.074 138.295 -43.8787 137.646 -44.123C136.953 -44.3844 136.285 -44.3859 135.617 -44.328C134.357 -44.2187 133.101 -44.0215 131.852 -43.8097C130.631 -43.6022 129.5 -43.0965 128.346 -42.6612C126.829 -42.0874 125.407 -41.3563 124.116 -40.3735C123.916 -40.2214 123.656 -40.1199 123.509 -39.9299C122.709 -38.8975 121.873 -37.8846 121.167 -36.79C119.969 -34.9347 118.614 -33.6133 116.949 -32.3253C116.679 -32.1169 116.5 -31.7929 116.278 -31.5208C115.841 -31.6748 115.533 -31.8643 115.22 -31.8721C114.857 -31.8803 114.579 -32.0426 114.262 -32.1364C113.936 -32.2326 113.534 -32.2389 113.213 -32.1359C112.868 -32.0251 112.681 -32.5386 112.313 -32.2603C112.211 -32.184 111.902 -32.3807 111.688 -32.4526C111.455 -32.5309 111.198 -32.5707 110.995 -32.697C110.683 -32.8908 110.565 -32.3142 110.222 -32.5615C110.04 -32.6926 109.728 -32.6329 109.484 -32.6926C109.205 -32.7602 108.941 -32.8918 108.661 -32.9462C108.271 -33.0225 107.926 -32.783 107.571 -32.7291C107.323 -32.6917 107.036 -33.1216 106.73 -33.1979C106.328 -33.2975 105.922 -33.2669 105.499 -33.4403C105.122 -33.5948 104.459 -33.7313 104.267 -32.9725C104.255 -32.9229 103.876 -32.9657 103.628 -32.9657C103.745 -33.2076 103.828 -33.3786 103.914 -33.5574C103.483 -33.7342 103.158 -34.2949 102.634 -33.7988C102.452 -34.0889 102.288 -33.7736 102.169 -33.7882C101.826 -33.8304 101.7 -34.6607 101.148 -34.0685C100.783 -34.2191 100.428 -34.4081 100.049 -34.4999C99.8937 -34.5373 99.6604 -34.2667 99.5124 -34.3085C99.2971 -34.3692 99.1301 -34.7418 98.8724 -34.4338C98.6328 -34.1477 98.5208 -34.5825 98.4053 -34.4892C98.2943 -34.3988 98.2719 -34.2001 98.2101 -34.0486C97.3129 -34.3337 97.3129 -34.3337 97.0962 -35.1246C96.8668 -35.0158 96.6247 -34.9415 96.4338 -34.7987C96.2658 -34.6738 96.1543 -34.4722 96.0335 -34.324C95.8878 -34.5645 95.7383 -34.8123 95.5942 -35.0503C93.7288 -34.5596 93.5895 -34.599 92.9247 -35.8208H92.0242C91.9652 -35.6965 91.8825 -35.5201 91.7865 -35.3165C91.6195 -35.9821 91.6194 -35.9821 90.9483 -36.3489C90.6644 -36.4247 91.1704 -35.6382 90.565 -36.0142C90.2372 -36.2177 89.8617 -36.2139 89.4819 -35.9768C89.3109 -35.8699 88.9899 -35.8986 88.7795 -35.9778C88.3617 -36.1356 87.7621 -36.1308 87.8415 -36.8721C87.8556 -36.9994 87.635 -37.2307 87.2814 -36.9868C86.938 -36.7507 86.4081 -36.7832 85.8729 -36.6812C85.9513 -36.9125 86.0268 -37.1355 86.1242 -37.424C85.38 -37.1559 84.7659 -36.9781 84.1936 -37.5921C84.0105 -37.7889 83.747 -37.3536 83.3515 -37.5931C82.8094 -37.922 82.0798 -37.9424 81.34 -38.1163C81.3201 -38.2475 81.2831 -38.4904 81.2485 -38.7163C81.1837 -38.7469 81.1447 -38.7839 81.1102 -38.7795C80.7907 -38.7406 79.5473 -38.9306 79.181 -39.0433C78.5508 -39.2362 77.9142 -39.4101 77.2767 -39.5762C74.2936 -40.3531 71.4347 -41.521 68.4832 -42.3794C66.3865 -42.9891 64.2888 -43.6168 62.159 -44.1357C60.3672 -44.5719 58.5632 -45.0242 56.7929 -45.5805C55.8042 -45.8914 54.7507 -45.9959 53.7294 -46.2057C53.407 -46.2723 53.0972 -46.3996 52.7748 -46.4627C52.2395 -46.5682 51.698 -46.6439 51.1593 -46.7324C50.6201 -46.8208 50.0581 -46.8397 49.5472 -47.0117C48.3963 -47.3989 47.1666 -47.3498 46.0074 -47.7541C45.3567 -47.9809 44.5828 -47.7827 43.8644 -48.0339C43.2776 -48.2384 42.5251 -48.0727 42.0147 -48.3647C41.4229 -48.7029 40.7946 -48.5148 40.1907 -48.7942C39.5892 -49.0721 38.7773 -48.8389 38.0585 -49.0837C37.775 -49.1804 37.3377 -48.9492 37.0152 -48.782C36.556 -48.5435 36.158 -48.4517 35.7377 -48.8447C35.5478 -49.0225 33.2183 -49.9534 33.1292 -49.8669C32.6353 -49.3864 32.2067 -49.8207 31.6164 -50C31.6866 -49.7129 31.7255 -49.5385 31.7728 -49.3665C31.8117 -49.2232 31.8604 -49.0823 31.931 -48.8578C31.3203 -49.058 31.3013 -49.4792 31.3661 -49.9475C31.1167 -49.8042 30.9127 -49.6254 30.8557 -49.6643C30.5503 -49.8693 30.3112 -49.7804 29.9917 -49.6779C29.7696 -49.607 29.4593 -49.8426 29.1803 -49.9053C29.0117 -49.9432 28.8233 -49.9368 28.6513 -49.9067C28.3986 -49.8615 28.2028 -49.3937 27.894 -49.7945C27.6008 -50.1749 27.3441 -49.5579 27.1688 -49.743C26.6681 -50.2696 26.3043 -49.6604 25.8825 -49.6215C25.5251 -49.5885 25.0585 -49.5224 24.962 -48.99C24.9528 -48.9375 24.6338 -48.8612 24.5383 -48.9215C24.3542 -49.0376 24.2013 -49.2445 23.985 -49.0434C23.3957 -48.4935 22.5268 -48.4211 21.957 -47.8357C21.8197 -47.6943 21.5976 -47.534 21.4261 -47.5466C21.0302 -47.5753 20.8675 -47.2906 20.6917 -47.0715C20.4423 -46.7596 20.1788 -46.4851 19.8574 -46.2446C19.5189 -45.992 19.3002 -45.6621 18.7674 -45.6281C18.3602 -45.6023 18.1459 -45.0067 17.6535 -44.8265C16.2592 -44.3159 14.9719 -43.5303 13.7641 -42.7107C12.5849 -41.9111 11.3425 -41.1726 10.2652 -40.1937C9.5994 -39.5884 8.89369 -39.0141 8.24301 -38.3831C7.19928 -37.3706 6.49307 -36.088 5.56235 -34.9974C4.26828 -33.4816 3.52654 -31.6952 2.66496 -29.956C1.89301 -28.398 1.424 -26.754 1.02657 -25.0604C0.783051 -24.0212 0.814224 -22.9033 0.277512 -21.9327C0.258514 -21.8987 0.26825 -21.8442 0.276031 -21.8015C0.47377 -20.7531 -0.0341949 -19.7693 0.00184631 -18.7311C0.036911 -17.7167 -0.015213 -16.6989 0.0213165 -15.6845C0.0364075 -15.2769 0.211761 -14.8776 0.267761 -14.468C0.31842 -14.0939 0.282364 -13.7412 0.507858 -13.3667C0.677353 -13.0844 0.585297 -12.6559 0.769882 -12.2857C0.879471 -12.0671 0.607224 -11.6741 0.546356 -11.3525C0.47963 -10.9964 0.50592 -10.6616 0.99588 -10.6368C1.09671 -9.9222 1.6904 -9.35962 1.7917 -8.72563C1.99188 -7.47755 2.9713 -6.64194 3.24989 -5.47354C3.84991 -5.12132 3.71014 -4.32457 4.25952 -3.88393C4.68909 -3.53949 4.88538 -2.91715 5.22873 -2.45076C5.60765 -1.93579 6.03769 -1.45824 6.44194 -0.961727C6.52036 -0.865536 6.65819 -0.737759 6.6387 -0.654198C6.46336 0.11097 7.06583 0.435982 7.47884 0.860104C8.15826 1.55629 8.82843 2.26461 9.54828 2.91756C10.7776 4.03203 12.0248 5.12124 13.4285 6.03215C14.3514 6.63068 15.1 7.51779 16.0556 8.04199C17.1183 8.62547 18.0778 9.34448 19.102 9.97265C20.4009 10.7689 21.7437 11.4879 23.0743 12.2293C24.4765 13.011 25.9303 13.6897 27.3217 14.484C28.1472 14.9552 28.9085 15.5766 29.7818 15.9172C30.9886 16.3874 32.0138 17.1526 33.1326 17.756C34.5201 18.5046 35.7894 19.4724 37.1063 20.3503C38.2392 21.1052 39.1236 22.1337 40.1011 23.0611C40.501 23.4406 40.8473 23.8584 41.3781 24.13C41.8457 24.3699 42.1905 24.8611 42.4379 25.3877C42.9259 26.4245 43.4198 27.4603 43.7281 28.5631C43.8528 29.0095 43.7782 29.508 43.8528 29.9734C43.9097 30.3285 43.5396 30.8955 44.2882 30.9805C44.3344 30.9859 44.369 31.29 44.37 31.4557C44.3783 32.3826 44.3598 33.3105 44.3792 34.2374C44.3919 34.8394 43.9102 35.3578 44.1084 35.9825C43.5649 36.5145 43.9682 37.2704 43.6214 37.9073C43.3195 38.4617 43.4495 39.2346 43.299 39.8905C43.1061 40.7285 42.6649 41.5379 42.6201 42.3754C42.567 43.3714 42.039 44.19 41.8851 45.1432C41.7449 46.0128 41.158 46.811 41.0167 47.6811C40.8287 48.8373 40.4474 49.9217 40.1381 51.0347C40.1065 51.1498 40.2789 51.3209 40.368 51.488C40.2419 51.5312 40.0875 51.5842 39.8941 51.6503C39.8517 52.4674 39.693 53.2748 39.3871 54.0609C39.2678 54.3674 39.3701 54.7537 39.3179 55.0952C39.2688 55.4178 39.1085 55.7253 39.0715 56.0479C39.0287 56.4259 39.0369 56.7815 38.8153 57.1415C38.6293 57.4427 38.5577 57.8488 38.546 58.2122C38.5328 58.6067 38.4691 58.9633 38.263 59.2937C38.0697 59.6036 38.7749 59.9379 38.2148 60.2527C37.8227 60.4737 38.1481 60.9552 37.9786 61.2044C37.5753 61.799 37.7219 62.5001 37.5145 63.1336C37.3815 63.5412 37.2885 64.0168 37.211 64.4672C37.1346 64.9107 37.3284 65.4 36.9753 65.7969C37.4044 66.0238 36.9427 66.1914 36.9271 66.3881C36.911 66.5892 36.8014 66.7816 36.7761 66.9832C36.7459 67.2194 36.7547 67.4613 36.7615 67.6998C36.7644 67.7941 36.855 67.9481 36.8243 67.9724C36.1239 68.5262 36.4936 69.4123 36.1634 70.0915C36.0119 70.4029 36.0207 70.8091 35.9165 71.1749C35.7723 71.6826 35.4762 72.1849 35.5848 72.7791C35.6306 73.0273 35.4923 73.3674 35.3281 73.5826C35.034 73.9689 35.0607 74.3872 35.0822 74.8074C35.1143 75.4438 35.0004 75.4142 34.8484 76.0997C34.7038 76.7521 34.3058 77.3356 34.3 77.9919C34.2942 78.5861 33.5699 79.1662 34.2352 79.7866C34.2416 79.7929 34.039 80.0222 33.9333 80.1466C33.6586 80.4682 33.6941 80.8777 33.5884 81.246C33.453 81.7172 33.4443 82.1078 33.7156 82.5217C33.5626 82.5567 33.4423 82.5844 33.3215 82.6121C33.2899 82.6432 33.2353 82.6714 33.231 82.7059C33.1345 83.4623 33.0517 84.2202 32.948 84.9756C32.8564 85.6456 33.1832 86.3544 32.6996 86.9971C32.5418 87.2075 33.1253 87.5111 32.7079 87.8541C32.6163 87.9294 32.8126 88.3535 32.8769 88.6173C32.7278 88.6693 32.5739 88.7228 32.4264 88.7743C32.4653 89.5341 33.3026 90.1564 32.7254 90.9711C33.1355 91.1397 33.7998 91.0182 33.736 91.8524C33.4974 91.7353 33.3284 91.6523 33.1715 91.5755C33.0814 91.643 32.9577 91.695 32.9602 91.7407C32.9767 92.0365 33.0196 92.3309 33.0551 92.6254C33.0668 92.7196 33.1082 92.8901 33.0926 92.8955C32.4108 93.1233 33.1258 93.7316 32.7244 94.1435C32.3587 94.5201 32.8462 95.1196 32.9942 95.5733C33.1306 95.9897 33.1788 96.3832 33.2232 96.8015C33.285 97.3864 33.2495 98.0471 33.5212 98.5252C33.8091 99.0304 33.5836 99.5561 33.8203 99.9967C34.0604 100.444 34.3633 100.852 34.2791 101.398C34.9015 102.109 34.8484 103.111 35.352 103.867C35.4509 104.015 35.6847 104.073 35.8658 104.178V105.486C36.2175 105.694 36.6918 105.774 36.6884 106.32C37.3323 106.665 36.4907 107.054 36.7308 107.451C36.8384 107.46 37.0065 107.526 37.0712 107.471C37.2412 107.327 37.3386 107.183 37.5597 107.435C37.7146 107.611 37.6216 107.661 37.5592 107.826C37.3961 108.259 37.7541 108.866 37.833 108.787C38.3302 108.286 38.377 108.934 38.6098 109.047C38.7009 109.091 38.8061 109.27 38.7842 109.357C38.5772 110.177 39.2468 110.381 39.7314 110.665C41.118 111.479 41.1273 111.463 42.2485 111.505C42.2485 111.755 42.283 112.015 42.2407 112.262C42.1769 112.631 42.3663 112.87 42.6288 113.028C43.4407 113.517 44.2477 114.024 45.103 114.426C45.9144 114.807 46.7638 115.23 47.6341 115.339C48.9335 115.504 50.1487 116.079 51.5007 115.991C52.7792 115.908 54.0674 115.961 55.3512 115.977C56.7183 115.993 57.9997 115.582 59.3084 115.276C60.2002 115.067 61.0423 114.792 61.8756 114.41C62.3928 114.172 62.9928 114.013 63.6143 114.113C64.4442 114.245 65.185 113.908 65.9156 113.586C67.9124 112.705 69.4106 111.616 71.1025 110.396C71.967 109.773 72.8622 109.211 73.6083 108.427C74.8391 107.133 75.6884 105.709 76.5398 103.671C76.9801 102.617 77.5816 101.614 78.2137 100.656C79.4391 98.7987 80.213 97.0167 81.3469 94.6634C82.2922 92.7011 82.9828 90.6515 83.7835 88.646C84.2043 87.5913 84.6787 86.5419 85.0415 85.4532C85.4014 84.3722 85.7794 83.2976 86.4223 82.306C86.8056 81.7143 87.0359 80.9652 87.4256 80.3487C88.1527 79.1963 88.6841 77.9531 89.2646 76.7327C89.9674 75.2563 90.7408 73.8008 91.3472 72.2942C91.8883 70.9495 92.7426 69.7927 93.2803 68.4548C93.8126 67.1304 94.5422 65.8838 95.2036 64.6129C95.8357 63.3979 96.6647 62.3772 97.9831 61.8263C98.775 61.4954 99.4763 61.0149 100.011 60.3197Z" fill="#FF9800"/>
</svg>
