<svg width="699" height="604" viewBox="0 0 699 604" fill="none" xmlns="http://www.w3.org/2000/svg">
<path d="M400 604C620.914 604 800 593.557 800 580.674C800 567.792 620.914 557.348 400 557.348C179.086 557.348 0 567.792 0 580.674C0 593.557 179.086 604 400 604Z" fill="white"/>
<path d="M641.642 582.24H384.362C381.852 582.259 379.365 581.762 377.055 580.782C374.744 579.801 372.66 578.357 370.931 576.539C369.202 574.722 367.865 572.569 367.003 570.214C366.141 567.859 365.772 565.353 365.919 562.85L391.5 19.4112C391.802 14.2159 394.06 9.32704 397.822 5.72644C401.584 2.12584 406.57 0.0802356 411.78 0.000492456H669.039C671.552 -0.0179001 674.042 0.47909 676.355 1.46073C678.667 2.44236 680.754 3.88774 682.485 5.70736C684.216 7.52697 685.554 9.68209 686.417 12.0393C687.28 14.3965 687.65 16.9056 687.503 19.4112L662.004 562.768C661.717 567.988 659.453 572.904 655.672 576.52C651.892 580.135 646.876 582.18 641.642 582.24Z" fill="#7340FD"/>
<path opacity="0.4" d="M641.642 582.24H384.362C381.852 582.259 379.365 581.762 377.055 580.782C374.744 579.801 372.66 578.357 370.931 576.539C369.202 574.722 367.865 572.569 367.003 570.214C366.141 567.859 365.772 565.353 365.919 562.85L391.5 19.4112C391.802 14.2159 394.06 9.32704 397.822 5.72644C401.584 2.12584 406.57 0.0802356 411.78 0.000492456H669.039C671.552 -0.0179001 674.042 0.47909 676.355 1.46073C678.667 2.44236 680.754 3.88774 682.485 5.70736C684.216 7.52697 685.554 9.68209 686.417 12.0393C687.28 14.3965 687.65 16.9056 687.503 19.4112L662.004 562.768C661.717 567.988 659.453 572.904 655.672 576.52C651.892 580.135 646.876 582.18 641.642 582.24Z" fill="white"/>
<path opacity="0.2" d="M641.642 582.24H384.362C381.852 582.259 379.365 581.762 377.055 580.782C374.744 579.801 372.66 578.357 370.931 576.539C369.202 574.722 367.865 572.569 367.003 570.214C366.141 567.859 365.772 565.353 365.919 562.85L391.5 19.4112C391.802 14.2159 394.06 9.32704 397.822 5.72644C401.584 2.12584 406.57 0.0802356 411.78 0.000492456H669.039C671.552 -0.0179001 674.042 0.47909 676.355 1.46073C678.667 2.44236 680.754 3.88774 682.485 5.70736C684.216 7.52697 685.554 9.68209 686.417 12.0393C687.28 14.3965 687.65 16.9056 687.503 19.4112L662.004 562.768C661.717 567.988 659.453 572.904 655.672 576.52C651.892 580.135 646.876 582.18 641.642 582.24Z" fill="black"/>
<path d="M620.991 582.24H363.732C361.22 582.262 358.731 581.767 356.418 580.788C354.105 579.808 352.019 578.365 350.288 576.547C348.556 574.729 347.218 572.575 346.354 570.219C345.491 567.863 345.121 565.355 345.268 562.85L370.87 19.4112C371.171 14.2194 373.427 9.33345 377.184 5.73337C380.942 2.13328 385.923 0.0853969 391.129 0.000502246H648.409C650.921 -0.0180766 653.41 0.478975 655.722 1.46083C658.033 2.44268 660.119 3.88839 661.848 5.70834C663.577 7.52829 664.914 9.68366 665.774 12.0408C666.635 14.398 667.002 16.9066 666.852 19.4112L641.374 562.768C641.086 567.991 638.82 572.91 635.035 576.527C631.25 580.143 626.229 582.185 620.991 582.24Z" fill="#7340FD"/>
<path opacity="0.4" d="M620.991 582.24H363.732C361.22 582.262 358.731 581.767 356.418 580.788C354.105 579.808 352.019 578.365 350.288 576.547C348.556 574.729 347.218 572.575 346.354 570.219C345.491 567.863 345.121 565.355 345.268 562.85L370.87 19.4112C371.171 14.2194 373.427 9.33345 377.184 5.73337C380.942 2.13328 385.923 0.0853969 391.129 0.000502246H648.409C650.921 -0.0180766 653.41 0.478975 655.722 1.46083C658.033 2.44268 660.119 3.88839 661.848 5.70834C663.577 7.52829 664.914 9.68366 665.774 12.0408C666.635 14.398 667.002 16.9066 666.852 19.4112L641.374 562.768C641.086 567.991 638.82 572.91 635.035 576.527C631.25 580.143 626.229 582.185 620.991 582.24Z" fill="white"/>
<path opacity="0.6" d="M519.119 12.838C519.12 13.9064 518.705 14.9334 517.962 15.7023C517.219 16.4711 516.207 16.9218 515.137 16.9591C514.627 16.9363 514.126 16.81 513.665 16.5879C513.204 16.3658 512.794 16.0525 512.458 15.6671C512.123 15.2817 511.869 14.8322 511.712 14.3459C511.556 13.8596 511.5 13.3465 511.548 12.838C511.547 11.7695 511.962 10.7425 512.705 9.97369C513.448 9.20484 514.46 8.75419 515.529 8.7168C516.04 8.73966 516.541 8.86597 517.002 9.08806C517.462 9.31016 517.873 9.62342 518.209 10.0088C518.544 10.3942 518.798 10.8437 518.955 11.33C519.111 11.8164 519.167 12.3294 519.119 12.838Z" fill="black"/>
<path opacity="0.6" d="M526.794 12.8378C526.779 13.5208 526.508 14.1734 526.034 14.6659C525.56 15.1584 524.918 15.4548 524.235 15.496C523.906 15.4807 523.584 15.3989 523.287 15.2554C522.991 15.1119 522.726 14.9097 522.51 14.6612C522.294 14.4127 522.131 14.1229 522.03 13.8095C521.93 13.4961 521.894 13.1655 521.925 12.8378C521.939 12.1549 522.21 11.5023 522.684 11.0098C523.158 10.5173 523.8 10.2209 524.483 10.1797C524.812 10.195 525.135 10.2768 525.431 10.4203C525.728 10.5638 525.992 10.7659 526.208 11.0145C526.424 11.263 526.588 11.5528 526.688 11.8662C526.789 12.1796 526.825 12.5102 526.794 12.8378Z" fill="black"/>
<path d="M656.867 19.4318L631.348 561.634C631.318 563.692 630.499 565.659 629.059 567.131C627.62 568.603 625.67 569.468 623.612 569.547H361.607C360.708 569.517 359.825 569.3 359.014 568.909C358.204 568.518 357.484 567.962 356.902 567.278C356.319 566.593 355.886 565.794 355.63 564.932C355.375 564.07 355.303 563.164 355.418 562.273L381 18.793C380.966 17.1395 381.56 15.5345 382.662 14.3C383.764 13.0656 385.293 12.293 386.941 12.1373H452.463C453.407 12.1618 454.319 12.4898 455.062 13.0725C455.805 13.6553 456.341 14.4618 456.589 15.3724L458.961 22.6669C459.214 23.5716 459.752 24.3708 460.495 24.9461C461.238 25.5215 462.147 25.8422 463.087 25.8609H574.656C575.61 25.8247 576.531 25.5082 577.306 24.951C578.08 24.3938 578.672 23.6208 579.009 22.7287L582.062 15.3931C582.394 14.4837 582.985 13.6911 583.762 13.1126C584.539 12.5342 585.468 12.1952 586.436 12.1373H651.029C651.892 12.2322 652.729 12.4962 653.49 12.9144C654.251 13.3326 654.922 13.8967 655.464 14.5743C656.006 15.2519 656.409 16.0298 656.65 16.8634C656.891 17.6969 656.965 18.5697 656.867 19.4318Z" fill="black"/>
<path opacity="0.3" d="M655.609 45.9928L632.647 533.59H356.635L379.597 45.9928H655.609Z" fill="white"/>
<path d="M645.83 108.944H383.434L363.773 526.687H626.169L645.83 108.944Z" fill="#7340FD"/>
<path opacity="0.8" d="M645.83 108.944H383.434L363.773 526.687H626.169L645.83 108.944Z" fill="white"/>
<path d="M495.497 556.236H491.763C491.175 556.244 490.591 556.131 490.048 555.904C489.505 555.677 489.014 555.341 488.607 554.917C488.204 554.488 487.893 553.982 487.691 553.429C487.489 552.877 487.4 552.29 487.431 551.702L487.658 546.942C487.726 545.749 488.245 544.625 489.11 543.799C489.976 542.972 491.123 542.505 492.32 542.492H496.054C496.64 542.486 497.22 542.6 497.759 542.827C498.298 543.054 498.785 543.389 499.19 543.81C499.596 544.242 499.911 544.751 500.117 545.307C500.322 545.862 500.414 546.454 500.387 547.045L500.16 551.785C500.092 552.979 499.573 554.102 498.707 554.928C497.842 555.755 496.695 556.222 495.497 556.236ZM492.32 544.264C491.576 544.278 490.865 544.573 490.33 545.089C489.794 545.604 489.474 546.303 489.432 547.045L489.205 551.785C489.19 552.131 489.245 552.478 489.365 552.803C489.486 553.128 489.67 553.427 489.907 553.681C490.144 553.934 490.432 554.134 490.752 554.269C491.072 554.404 491.416 554.47 491.763 554.464H495.497C496.238 554.449 496.946 554.158 497.481 553.646C498.016 553.135 498.339 552.441 498.386 551.702L498.592 546.942C498.615 546.597 498.566 546.25 498.448 545.925C498.331 545.599 498.147 545.301 497.909 545.05C497.671 544.798 497.383 544.599 497.064 544.463C496.745 544.328 496.401 544.26 496.054 544.264H492.32Z" fill="white"/>
<path d="M646.036 104.74H383.64L385.951 55.5541H648.347L646.036 104.74Z" fill="#7340FD"/>
<path d="M634.917 71.7501C634.913 72.3093 634.699 72.8466 634.317 73.2551C633.934 73.6637 633.412 73.9135 632.854 73.9549C632.583 73.9367 632.318 73.865 632.074 73.7442C631.831 73.6233 631.614 73.4557 631.436 73.2508C631.257 73.0459 631.121 72.8079 631.035 72.5503C630.95 72.2928 630.915 72.0208 630.935 71.7501C630.943 71.1923 631.159 70.6576 631.541 70.2501C631.922 69.8425 632.442 69.5913 632.998 69.5453C633.269 69.5636 633.534 69.6352 633.777 69.756C634.021 69.8769 634.238 70.0446 634.416 70.2494C634.594 70.4543 634.73 70.6924 634.816 70.9499C634.902 71.2074 634.936 71.4794 634.917 71.7501Z" fill="white"/>
<path d="M634.525 80.1367C634.516 80.6945 634.301 81.2292 633.919 81.6368C633.538 82.0443 633.018 82.2955 632.462 82.3415C631.918 82.2994 631.413 82.0438 631.057 81.6305C630.701 81.2173 630.524 80.6802 630.564 80.1367C630.573 79.5811 630.789 79.0489 631.171 78.6447C631.553 78.2405 632.072 77.9936 632.627 77.9525C633.167 77.9947 633.669 78.2475 634.024 78.6562C634.379 79.0648 634.559 79.5967 634.525 80.1367Z" fill="white"/>
<path d="M634.133 88.5438C634.124 89.0994 633.907 89.6317 633.526 90.0359C633.144 90.44 632.625 90.687 632.07 90.7281C631.53 90.6858 631.028 90.4331 630.673 90.0244C630.318 89.6157 630.138 89.0839 630.172 88.5438C630.18 87.9861 630.396 87.4514 630.777 87.0438C631.159 86.6362 631.678 86.385 632.235 86.339C632.779 86.3811 633.284 86.6368 633.64 87.05C633.995 87.4632 634.173 88.0003 634.133 88.5438Z" fill="white"/>
<path d="M452.931 79.1539L456.153 72.7182H457.331L459.918 79.1539H458.666L456.462 73.3526H456.941L454.165 79.1539H452.931ZM454.34 77.6645L454.71 76.7267H458.189L458.464 77.6645H454.34ZM462.148 79.1539L462.433 73.4712H460.195L460.248 72.4117H465.977L465.924 73.4712H463.686L463.402 79.1539H462.148ZM468.044 79.1539L468.328 73.4712H466.091L466.144 72.4117H471.872L471.819 73.4712H469.582L469.297 79.1539H468.044ZM473.83 75.2145H477.186L477.135 76.2451H473.778L473.83 75.2145ZM473.782 78.104H477.591L477.539 79.1539H472.476L472.813 72.4117H477.741L477.689 73.4615H474.014L473.782 78.104ZM478.936 79.1539L479.274 72.4117H480.306L484.279 77.6032H483.768L484.028 72.4117H485.272L484.935 79.1539H483.903L479.929 73.9624H480.44L480.18 79.1539H478.936ZM486.744 79.1539L487.081 72.4117H490.032C490.765 72.4117 491.401 72.5529 491.94 72.8355C492.478 73.118 492.89 73.5097 493.173 74.0105C493.457 74.5114 493.581 75.1021 493.547 75.7828C493.514 76.457 493.33 77.0478 492.996 77.555C492.662 78.0559 492.212 78.4476 491.645 78.7301C491.077 79.0126 490.427 79.1539 489.695 79.1539H486.744ZM488.05 78.0944H489.69C490.198 78.0944 490.64 77.9981 491.016 77.8055C491.398 77.6128 491.698 77.3431 491.915 76.9964C492.138 76.6496 492.261 76.2451 492.284 75.7828C492.307 75.314 492.225 74.9095 492.036 74.5692C491.854 74.2224 491.582 73.9528 491.218 73.7601C490.861 73.5675 490.429 73.4712 489.921 73.4712H488.282L488.05 78.0944ZM493.662 79.1539L497.037 72.4117H498.272L500.982 79.1539H499.67L497.361 73.0763H497.862L494.954 79.1539H493.662ZM495.139 77.5936L495.525 76.6111H499.171L499.459 77.5936H495.139ZM501.84 79.1539L502.178 72.4117H503.21L507.183 77.6032H506.672L506.932 72.4117H508.176L507.839 79.1539H506.807L502.833 73.9624H503.344L503.084 79.1539H501.84ZM512.767 79.2502C512.253 79.2502 511.778 79.1667 511.343 78.9998C510.915 78.8264 510.544 78.5856 510.232 78.2774C509.926 77.9628 509.694 77.5936 509.535 77.1698C509.376 76.746 509.309 76.2836 509.334 75.7828C509.359 75.2819 509.472 74.8196 509.674 74.3958C509.875 73.972 510.147 73.606 510.49 73.2978C510.834 72.9832 511.229 72.7424 511.674 72.5754C512.12 72.402 512.603 72.3154 513.124 72.3154C513.677 72.3154 514.177 72.4117 514.624 72.6043C515.071 72.7905 515.443 73.0698 515.739 73.4423L514.891 74.2032C514.66 73.9399 514.396 73.7441 514.101 73.6156C513.805 73.4808 513.481 73.4134 513.127 73.4134C512.773 73.4134 512.446 73.4712 512.144 73.5867C511.849 73.7023 511.587 73.8661 511.358 74.078C511.135 74.2899 510.955 74.5403 510.819 74.8292C510.689 75.1182 510.615 75.436 510.598 75.7828C510.58 76.1295 510.622 76.4474 510.723 76.7363C510.831 77.0253 510.986 77.2757 511.187 77.4876C511.395 77.6995 511.641 77.8633 511.925 77.9788C512.214 78.0944 512.536 78.1522 512.89 78.1522C513.243 78.1522 513.575 78.088 513.883 77.9596C514.192 77.8247 514.475 77.6225 514.733 77.3528L515.505 78.1233C515.171 78.4893 514.772 78.7686 514.306 78.9613C513.839 79.1539 513.327 79.2502 512.767 79.2502ZM518.009 75.2145H521.365L521.313 76.2451H517.957L518.009 75.2145ZM517.961 78.104H521.77L521.717 79.1539H516.654L516.992 72.4117H521.92L521.867 73.4615H518.193L517.961 78.104Z" fill="white"/>
<path d="M495.456 517.311C495.295 517.304 495.138 517.255 495.002 517.167L484.501 510.985C484.303 510.861 484.16 510.666 484.102 510.439C484.045 510.213 484.077 509.973 484.192 509.769C484.252 509.669 484.33 509.582 484.424 509.512C484.517 509.442 484.623 509.391 484.736 509.363C484.85 509.334 484.967 509.328 485.083 509.345C485.198 509.361 485.309 509.401 485.409 509.46L495.477 515.436L506.101 509.44C506.204 509.382 506.317 509.345 506.434 509.331C506.552 509.317 506.67 509.327 506.784 509.36C506.897 509.392 507.003 509.447 507.094 509.521C507.186 509.595 507.263 509.686 507.319 509.79C507.431 509.993 507.459 510.231 507.398 510.455C507.336 510.678 507.189 510.869 506.988 510.985L495.889 517.167C495.762 517.256 495.611 517.306 495.456 517.311Z" fill="white"/>
<path d="M495.807 509.831C495.647 509.831 495.491 509.789 495.353 509.708L484.852 503.526C484.652 503.398 484.509 503.199 484.451 502.969C484.394 502.739 484.427 502.496 484.543 502.289C484.667 502.091 484.863 501.948 485.089 501.891C485.316 501.833 485.556 501.865 485.76 501.98L495.828 507.977L506.452 501.877C506.657 501.76 506.901 501.728 507.129 501.79C507.357 501.852 507.552 502.002 507.669 502.207C507.787 502.412 507.818 502.655 507.757 502.883C507.695 503.111 507.545 503.305 507.339 503.423L496.24 509.604C496.116 509.714 495.968 509.791 495.807 509.831Z" fill="white"/>
<path opacity="0.6" d="M410.583 33.9795H413.987L414.214 29.0135H410.81L410.583 33.9795Z" fill="white"/>
<path opacity="0.6" d="M405.013 33.9795H408.438L408.747 27.3445H405.343L405.013 33.9795Z" fill="white"/>
<path opacity="0.6" d="M399.464 33.9796H402.868L403.26 25.696H399.856L399.464 33.9796Z" fill="white"/>
<path opacity="0.6" d="M393.914 33.9795H397.318L397.793 24.0269H394.389L393.914 33.9795Z" fill="white"/>
<path opacity="0.6" d="M625.035 32.1663H623.013L623.24 27.1797H625.262L625.035 32.1663Z" fill="white"/>
<path opacity="0.6" d="M626.335 33.9795H642.426L642.839 25.3662H626.727L626.335 33.9795Z" fill="white"/>
<path d="M544.907 448.714H448.626C447.405 448.725 446.194 448.485 445.07 448.009C443.945 447.534 442.93 446.834 442.087 445.951C441.244 445.069 440.591 444.023 440.168 442.878C439.746 441.734 439.563 440.515 439.631 439.297L440.766 413.128C440.892 410.603 441.979 408.223 443.804 406.472C445.629 404.722 448.055 403.734 450.585 403.711H546.846C548.067 403.701 549.278 403.94 550.402 404.416C551.527 404.891 552.542 405.591 553.385 406.474C554.228 407.356 554.881 408.402 555.303 409.547C555.726 410.691 555.909 411.91 555.841 413.128L554.706 439.297C554.58 441.818 553.496 444.196 551.675 445.946C549.855 447.696 547.434 448.686 544.907 448.714Z" fill="#7340FD"/>
<path opacity="0.2" d="M544.907 448.714H448.626C447.405 448.725 446.194 448.485 445.07 448.009C443.945 447.534 442.93 446.834 442.087 445.951C441.244 445.069 440.591 444.023 440.168 442.878C439.746 441.734 439.563 440.515 439.631 439.297L440.766 413.128C440.892 410.603 441.979 408.223 443.804 406.472C445.629 404.722 448.055 403.734 450.585 403.711H546.846C548.067 403.701 549.278 403.94 550.402 404.416C551.527 404.891 552.542 405.591 553.385 406.474C554.228 407.356 554.881 408.402 555.303 409.547C555.726 410.691 555.909 411.91 555.841 413.128L554.706 439.297C554.58 441.818 553.496 444.196 551.675 445.946C549.855 447.696 547.434 448.686 544.907 448.714Z" fill="white"/>
<path d="M457.95 426.213C458.047 423.751 459.118 421.428 460.929 419.755C462.739 418.082 465.141 417.195 467.605 417.29C468.875 417.231 470.141 417.46 471.31 417.96C472.478 418.459 473.518 419.217 474.351 420.175L472.185 422.133C471.628 421.476 470.932 420.95 470.147 420.594C469.362 420.238 468.508 420.059 467.647 420.072C466.812 420.036 465.978 420.169 465.196 420.463C464.414 420.758 463.699 421.207 463.096 421.785C462.492 422.363 462.012 423.057 461.685 423.825C461.357 424.593 461.188 425.419 461.189 426.254C461.107 427.063 461.202 427.88 461.467 428.649C461.732 429.418 462.16 430.12 462.723 430.708C463.286 431.295 463.97 431.754 464.727 432.052C465.484 432.351 466.297 432.481 467.11 432.436C467.998 432.443 468.878 432.264 469.693 431.909C470.507 431.554 471.237 431.031 471.835 430.375L473.898 432.436C473.008 433.392 471.924 434.147 470.717 434.648C469.51 435.149 468.21 435.386 466.904 435.341C465.69 435.427 464.472 435.248 463.334 434.817C462.196 434.386 461.166 433.713 460.314 432.844C459.463 431.976 458.81 430.933 458.402 429.788C457.994 428.643 457.84 427.423 457.95 426.213Z" fill="white"/>
<path d="M477.57 417.537H480.767L480.149 432.168H489.205L489.081 434.888H476.807L477.57 417.537Z" fill="white"/>
<path d="M503.151 430.869H494.487L492.609 434.888H489.288L497.829 417.537H501.088L508.144 434.888H504.781L503.151 430.869ZM502.202 428.335L499.252 420.752L495.683 428.335H502.202Z" fill="white"/>
<path d="M511.053 417.537H514.271L513.528 434.888H510.31L511.053 417.537Z" fill="white"/>
<path d="M534.097 434.888L534.571 423.389L528.382 432.909H526.938L521.718 423.575L521.223 434.929H518.149L518.913 417.579H521.553L527.928 429.077L535.19 417.579H537.831L537.109 434.929L534.097 434.888Z" fill="white"/>
<path opacity="0.2" d="M642.323 12.1168L367.755 297.694L380.876 18.7725C380.842 17.119 381.436 15.5139 382.538 14.2795C383.64 13.0451 385.169 12.2725 386.817 12.1168H452.339C453.283 12.1446 454.193 12.4737 454.935 13.056C455.678 13.6382 456.214 14.4429 456.465 15.3519L458.817 22.6464C459.07 23.551 459.607 24.3503 460.351 24.9256C461.094 25.5009 462.003 25.8217 462.943 25.8403H574.511C575.464 25.8015 576.385 25.484 577.159 24.9271C577.933 24.3703 578.526 23.5988 578.864 22.7082L581.918 15.3519C582.259 14.4462 582.855 13.6587 583.635 13.0846C584.415 12.5104 585.345 12.1743 586.312 12.1168H642.323Z" fill="white"/>
<path opacity="0.2" d="M654.722 65.0533L653.628 88.4823L363.381 390.338L364.475 366.909L654.722 65.0533Z" fill="white"/>
<path d="M616.576 55.5541H372.376V104.74H616.576V55.5541Z" fill="white"/>
<g opacity="0.2">
<path d="M646.036 104.74H383.64L385.951 55.5541H648.347L646.036 104.74Z" fill="white"/>
<path d="M634.917 71.7502C634.913 72.3094 634.699 72.8467 634.316 73.2553C633.934 73.6638 633.412 73.9137 632.854 73.9551C632.582 73.9368 632.318 73.8652 632.074 73.7443C631.831 73.6235 631.614 73.4558 631.435 73.2509C631.257 73.046 631.121 72.808 631.035 72.5505C630.949 72.2929 630.915 72.021 630.935 71.7502C630.943 71.1924 631.159 70.6577 631.54 70.2502C631.922 69.8426 632.441 69.5914 632.998 69.5454C633.269 69.5637 633.534 69.6353 633.777 69.7562C634.021 69.877 634.238 70.0447 634.416 70.2496C634.594 70.4544 634.73 70.6925 634.816 70.95C634.902 71.2076 634.936 71.4795 634.917 71.7502Z" fill="white"/>
<path d="M634.525 80.1367C634.516 80.6945 634.3 81.2292 633.919 81.6368C633.538 82.0443 633.018 82.2955 632.462 82.3415C631.918 82.2994 631.413 82.0438 631.057 81.6305C630.701 81.2173 630.524 80.6802 630.564 80.1367C630.572 79.5811 630.789 79.0489 631.171 78.6447C631.552 78.2405 632.072 77.9936 632.627 77.9525C633.167 77.9947 633.669 78.2475 634.024 78.6562C634.379 79.0648 634.559 79.5967 634.525 80.1367Z" fill="white"/>
<path d="M634.133 88.544C634.124 89.0996 633.907 89.6318 633.526 90.036C633.144 90.4402 632.624 90.6871 632.07 90.7282C631.53 90.686 631.028 90.4332 630.673 90.0245C630.317 89.6158 630.138 89.084 630.172 88.544C630.18 87.9862 630.396 87.4515 630.777 87.0439C631.159 86.6364 631.678 86.3851 632.235 86.3391C632.779 86.3813 633.284 86.6369 633.639 87.0501C633.995 87.4633 634.173 88.0005 634.133 88.544Z" fill="white"/>
</g>
<path d="M406.121 115.562C412.107 109.583 412.107 99.8897 406.121 93.9107C400.135 87.9317 390.429 87.9316 384.443 93.9106C378.457 99.8896 378.457 109.584 384.443 115.563C390.429 121.541 400.135 121.541 406.121 115.562Z" fill="white"/>
<path d="M471.759 107.213C473.115 98.8664 467.441 91.0021 459.085 89.6473C450.729 88.2925 442.855 93.9603 441.499 102.307C440.142 110.653 445.817 118.517 454.173 119.872C462.529 121.227 470.403 115.559 471.759 107.213Z" fill="white"/>
<path d="M532.832 108.221C534.777 99.9913 529.674 91.7454 521.435 89.8031C513.196 87.8608 504.94 92.9575 502.995 101.187C501.051 109.416 506.154 117.662 514.393 119.605C522.632 121.547 530.888 116.45 532.832 108.221Z" fill="white"/>
<path d="M590.101 115.563C596.087 109.584 596.087 99.8901 590.101 93.9111C584.115 87.9321 574.41 87.9321 568.423 93.9111C562.437 99.8901 562.437 109.584 568.423 115.563C574.41 121.542 584.115 121.542 590.101 115.563Z" fill="white"/>
<path d="M625.262 104.74C625.262 104.74 629.532 64.9916 648.347 55.5541L646.036 104.74H625.262Z" fill="#7340FD"/>
<path d="M617.69 55.5539C602.61 63.1162 596.875 90.1306 595.183 100.557C594.806 101.899 594.612 103.285 594.605 104.678C594.605 108.739 596.22 112.633 599.095 115.504C601.969 118.375 605.868 119.988 609.934 119.988C613.999 119.988 617.898 118.375 620.772 115.504C623.647 112.633 625.262 108.739 625.262 104.678C625.262 104.678 629.532 64.9296 648.347 55.4921L617.69 55.5539Z" fill="#7340FD"/>
<path d="M533.849 100.557C533.472 101.899 533.278 103.285 533.271 104.678C533.271 108.739 534.886 112.633 537.761 115.504C540.636 118.375 544.534 119.988 548.6 119.988C552.665 119.988 556.564 118.375 559.439 115.504C562.313 112.633 563.928 108.739 563.928 104.678C563.928 104.678 568.199 64.9296 587.034 55.4921H556.357C541.276 63.1162 535.541 90.1306 533.849 100.557Z" fill="#7340FD"/>
<path d="M472.536 100.557C472.152 101.898 471.951 103.284 471.938 104.678C472.083 108.644 473.763 112.399 476.624 115.154C479.484 117.908 483.303 119.447 487.276 119.447C491.25 119.447 495.068 117.908 497.929 115.154C500.79 112.399 502.469 108.644 502.615 104.678C502.615 104.678 506.885 64.9296 525.7 55.4921H495.023C479.942 63.1162 474.269 90.1306 472.536 100.557Z" fill="#7340FD"/>
<path d="M411.202 100.557C410.818 101.898 410.617 103.284 410.604 104.679C410.75 108.645 412.429 112.4 415.29 115.154C418.151 117.908 421.969 119.447 425.943 119.447C429.916 119.447 433.735 117.908 436.595 115.154C439.456 112.4 441.136 108.645 441.281 104.679C441.281 104.679 445.552 65.0328 464.366 55.5541H433.71C418.567 63.1164 412.894 90.1308 411.202 100.557Z" fill="#7340FD"/>
<path d="M349.869 100.557C349.492 101.899 349.298 103.285 349.291 104.678C349.291 108.739 350.906 112.633 353.781 115.504C356.655 118.375 360.554 119.988 364.619 119.988C368.685 119.988 372.583 118.375 375.458 115.504C378.333 112.633 379.948 108.739 379.948 104.678C379.948 104.678 384.218 64.9296 403.033 55.4921H372.376C357.296 63.1162 351.56 90.1306 349.869 100.557Z" fill="#7340FD"/>
<path opacity="0.2" d="M625.262 104.74C625.262 104.74 629.532 64.9916 648.347 55.5541L646.036 104.74H625.262Z" fill="black"/>
<path d="M503.537 273.411L401.031 332.531L503.552 391.636L606.043 332.531L503.537 273.411Z" fill="black"/>
<path d="M416.22 231.809L416.205 332.531L503.542 382.854V282.162L416.22 231.809Z" fill="#7340FD"/>
<path d="M503.543 282.162V382.854L590.866 332.531V231.809L503.543 282.162Z" fill="#7340FD"/>
<path opacity="0.25" d="M503.543 282.162V382.854L590.866 332.531V231.809L503.543 282.162Z" fill="white"/>
<path opacity="0.4" d="M503.543 282.162L504.909 380.366L555.321 353.017L503.543 382.854V282.162Z" fill="white"/>
<path d="M503.539 181.456L416.216 231.809L503.539 282.163L590.861 231.809L503.539 181.456Z" fill="#7340FD"/>
<path opacity="0.4" d="M503.539 181.456L416.216 231.809L503.539 282.163L590.861 231.809L503.539 181.456Z" fill="white"/>
<path opacity="0.1" d="M416.216 231.809L503.253 279.585L590.861 231.809L503.539 282.162L416.216 231.809Z" fill="white"/>
<path d="M453.635 210.229L540.957 260.583L553.441 253.389L466.118 203.036L453.635 210.229Z" fill="#7340FD"/>
<path d="M553.442 253.389V269.23L551.927 268.36L550.367 271.073L548.791 270.144L547.231 272.871L545.67 271.957L544.095 274.655L542.535 273.77L540.959 276.468V260.598L553.442 253.389Z" fill="#7340FD"/>
<path opacity="0.25" d="M553.442 253.389V269.23L551.927 268.36L550.367 271.073L548.791 270.144L547.231 272.871L545.67 271.957L544.095 274.655L542.535 273.77L540.959 276.468V260.598L553.442 253.389Z" fill="black"/>
<path d="M533.035 296.234C533.905 294.736 534.821 293.237 535.811 291.874C536.801 290.44 537.879 289.069 539.037 287.767C540.202 286.454 541.46 285.227 542.803 284.096C544.159 282.967 545.615 281.963 547.154 281.099C548.938 279.993 550.92 279.245 552.99 278.896C554.534 278.627 556.123 278.897 557.491 279.66C558.819 280.493 559.832 281.742 560.372 283.212C561.111 285.204 561.458 287.321 561.392 289.446C561.411 291.706 561.154 293.961 560.627 296.16C560.139 298.117 559.491 300.032 558.692 301.884C557.949 303.56 557.092 305.182 556.126 306.74L553.485 310.936C552.645 312.24 551.985 313.483 551.31 314.637C550.751 315.681 550.37 316.81 550.185 317.979L549.284 325.322L542.518 329.219L541.842 321.891C541.672 320.467 541.821 319.024 542.278 317.665C542.746 316.225 543.354 314.835 544.093 313.513C544.858 312.135 545.713 310.741 546.659 309.317C547.604 307.894 548.489 306.455 549.314 304.971C550.132 303.503 550.825 301.969 551.385 300.386C551.944 298.802 552.228 297.134 552.225 295.455C552.225 293.357 551.685 291.993 550.605 291.379C549.524 290.765 548.069 290.974 546.284 292.008C545.075 292.69 543.96 293.526 542.968 294.496C542.146 295.313 541.374 296.179 540.657 297.089C540.012 297.913 539.472 298.587 539.022 299.307C538.688 299.827 538.248 300.271 537.731 300.61C536.816 301.135 536.141 301 535.691 300.221L533.035 296.234ZM539.742 343.501C539.75 342.408 539.896 341.32 540.177 340.264C540.473 339.171 540.891 338.116 541.422 337.117C541.932 336.154 542.551 335.254 543.268 334.434C543.924 333.664 544.705 333.011 545.578 332.501C546.266 332.075 547.051 331.827 547.859 331.781C548.524 331.748 549.181 331.944 549.719 332.336C550.293 332.772 550.725 333.366 550.965 334.044C551.283 334.918 551.435 335.843 551.415 336.772C551.412 337.876 551.26 338.975 550.965 340.039C550.666 341.121 550.248 342.166 549.719 343.156C549.213 344.119 548.588 345.015 547.859 345.823C547.206 346.572 546.436 347.21 545.578 347.712C544.883 348.153 544.089 348.415 543.268 348.476C542.608 348.519 541.955 348.328 541.422 347.936C540.853 347.503 540.42 346.915 540.177 346.243C539.867 345.363 539.72 344.433 539.742 343.501Z" fill="white"/>
<path d="M445.711 279.915C446.585 279.413 447.517 279.021 448.487 278.746C449.536 278.452 450.624 278.32 451.713 278.356C452.988 278.406 454.251 278.633 455.464 279.03C456.983 279.514 458.443 280.167 459.815 280.979C461.958 282.202 463.922 283.714 465.651 285.474C467.394 287.252 468.906 289.24 470.152 291.394C471.387 293.562 472.354 295.872 473.033 298.273C473.708 300.683 474.051 303.173 474.053 305.676C474.12 307.649 473.856 309.619 473.273 311.505C472.87 312.787 472.211 313.975 471.338 314.997C470.631 315.803 469.762 316.452 468.787 316.9C467.857 317.32 466.972 317.71 466.131 318.039C465.361 318.348 464.635 318.757 463.971 319.253C463.657 319.501 463.395 319.809 463.202 320.159C463.009 320.509 462.888 320.894 462.846 321.291L461.945 327.6L455.179 323.689L454.503 315.582C454.288 314.323 454.433 313.029 454.924 311.85C455.346 311.02 455.977 310.312 456.754 309.797C457.557 309.282 458.418 308.864 459.32 308.553C460.245 308.229 461.131 307.802 461.96 307.279C462.811 306.716 463.524 305.968 464.046 305.091C464.67 303.859 464.96 302.484 464.886 301.105C464.902 298.995 464.336 296.921 463.251 295.111C462.229 293.304 460.742 291.804 458.945 290.765C457.93 290.119 456.806 289.662 455.629 289.416C454.862 289.306 454.084 289.306 453.318 289.416C452.762 289.488 452.211 289.593 451.668 289.73C451.452 289.791 451.226 289.807 451.004 289.776C450.782 289.745 450.568 289.668 450.377 289.551C449.39 288.911 448.666 287.937 448.337 286.808L445.711 279.915ZM452.403 334.899C452.382 333.969 452.535 333.045 452.853 332.171C453.092 331.492 453.525 330.899 454.098 330.463C454.626 330.073 455.273 329.877 455.929 329.908C456.749 329.941 457.546 330.189 458.239 330.628C459.104 331.145 459.879 331.797 460.535 332.561C461.257 333.38 461.882 334.28 462.395 335.243C462.929 336.24 463.342 337.296 463.626 338.39C463.918 339.445 464.07 340.533 464.076 341.627C464.1 342.562 463.948 343.492 463.626 344.37C463.393 345.048 462.965 345.642 462.395 346.078C461.855 346.462 461.196 346.643 460.535 346.588C459.722 346.531 458.934 346.279 458.239 345.853C457.379 345.337 456.6 344.695 455.929 343.95C455.214 343.138 454.599 342.242 454.098 341.283C453.569 340.293 453.152 339.247 452.853 338.166C452.557 337.102 452.406 336.003 452.403 334.899Z" fill="white"/>
<path d="M214.12 414.721C207.3 415.441 184.62 417.161 176.76 408.281C175.433 406.838 174.511 405.07 174.086 403.157C173.661 401.243 173.749 399.251 174.34 397.381C176.02 390.601 181.08 387.241 188.22 387.241C197.54 387.241 209.88 393.581 216.22 401.241C220.44 393.941 228.68 382.821 241.08 384.101C250.08 385.001 256.88 391.841 256.24 399.361C255.9 403.361 252.1 416.161 218.24 414.601L215.8 421.301L214.12 414.721ZM188.22 394.721C184.52 394.721 182.5 395.861 181.64 399.301C181.04 401.721 181.64 402.501 182.4 403.301C186.6 408.041 201.52 408.721 211.8 407.821C208.04 401.781 196.46 394.761 188.22 394.761V394.721ZM221.36 407.141C242.26 407.681 248.5 402.021 248.78 398.701C249.02 395.761 245.48 392.081 240.38 391.561C239.987 391.542 239.593 391.542 239.2 391.561C230.22 391.541 223.94 401.981 221.36 407.181V407.141Z" fill="#263238"/>
<g opacity="0.7">
<path d="M214.12 414.721C207.3 415.441 184.62 417.161 176.76 408.281C175.433 406.838 174.511 405.07 174.086 403.157C173.661 401.243 173.749 399.251 174.34 397.381C176.02 390.601 181.08 387.241 188.22 387.241C197.54 387.241 209.88 393.581 216.22 401.241C220.44 393.941 228.68 382.821 241.08 384.101C250.08 385.001 256.88 391.841 256.24 399.361C255.9 403.361 252.1 416.161 218.24 414.601L215.8 421.301L214.12 414.721ZM188.22 394.721C184.52 394.721 182.5 395.861 181.64 399.301C181.04 401.721 181.64 402.501 182.4 403.301C186.6 408.041 201.52 408.721 211.8 407.821C208.04 401.781 196.46 394.761 188.22 394.761V394.721ZM221.36 407.141C242.26 407.681 248.5 402.021 248.78 398.701C249.02 395.761 245.48 392.081 240.38 391.561C239.987 391.542 239.593 391.542 239.2 391.561C230.22 391.541 223.94 401.981 221.36 407.181V407.141Z" fill="white"/>
</g>
<path d="M143.14 511.501H289.92V410.681H143.14V511.501Z" fill="#7340FD"/>
<path opacity="0.2" d="M143.14 511.501H289.92V410.681H143.14V511.501Z" fill="white"/>
<path opacity="0.2" d="M143.14 511.501H289.92V445.521H143.14V511.501Z" fill="black"/>
<path d="M180.18 511.501H192.1V410.681H180.18V511.501Z" fill="#263238"/>
<path opacity="0.2" d="M231.6 511.501H289.92V410.681H231.6V511.501Z" fill="black"/>
<path d="M260.54 511.501H269.3V410.681H260.54V511.501Z" fill="#263238"/>
<path opacity="0.8" d="M180.18 511.501H192.1V410.681H180.18V511.501Z" fill="white"/>
<path opacity="0.7" d="M260.54 511.501H269.3V410.681H260.54V511.501Z" fill="white"/>
<path d="M146.74 459.021C141.78 457.241 98.2199 441.021 95.7799 425.661C95.1999 422.101 96.6999 418.921 100.22 416.181C101.927 414.77 103.945 413.784 106.108 413.304C108.27 412.824 110.516 412.864 112.66 413.421C122.44 415.781 132 427.601 138.86 438.281C135.18 425.381 132.32 409.661 137.36 402.281C138.393 400.812 139.794 399.64 141.423 398.881C143.051 398.123 144.85 397.806 146.64 397.961C148.511 397.938 150.357 398.388 152.007 399.269C153.658 400.15 155.059 401.434 156.08 403.001C161.42 411.161 158.3 428.101 154.68 441.001C162.68 428.461 173.78 413.421 181.56 414.081C183.56 414.241 186.24 415.421 187.9 420.081C188.649 422.207 188.951 424.464 188.785 426.712C188.62 428.959 187.992 431.148 186.94 433.141C179.08 448.821 149.18 458.461 147.92 458.861C147.741 458.891 147.559 458.891 147.38 458.861C147.177 458.95 146.961 459.004 146.74 459.021ZM151.32 453.901C159.9 450.601 178.2 442.501 183.62 431.641C184.46 430.095 184.964 428.389 185.099 426.635C185.233 424.88 184.995 423.117 184.4 421.461C183.2 418.001 181.74 417.881 181.26 417.861H181.04C174.1 417.841 160.12 438.361 151.32 453.901ZM102.46 419.061C101.431 419.667 100.595 420.552 100.049 421.615C99.5041 422.677 99.2719 423.872 99.3799 425.061C101 435.221 128.7 448.061 143.6 453.901C138.52 444.101 124.9 420.141 111.76 416.981C110.883 416.764 109.983 416.65 109.08 416.641C106.661 416.665 104.323 417.519 102.46 419.061ZM140.46 404.461C134.58 412.961 142.34 438.641 147.4 452.141C152.06 439.001 159 414.141 153.08 405.101C152.379 404.031 151.415 403.158 150.281 402.566C149.146 401.974 147.879 401.684 146.6 401.721H146.24C145.106 401.623 143.966 401.825 142.934 402.305C141.902 402.786 141.014 403.53 140.36 404.461H140.46Z" fill="#263238"/>
<g opacity="0.3">
<path d="M146.74 459.021C141.78 457.241 98.2199 441.021 95.7799 425.661C95.1999 422.101 96.6999 418.921 100.22 416.181C101.927 414.77 103.945 413.784 106.108 413.304C108.27 412.824 110.516 412.864 112.66 413.421C122.44 415.781 132 427.601 138.86 438.281C135.18 425.381 132.32 409.661 137.36 402.281C138.393 400.812 139.794 399.64 141.423 398.881C143.051 398.123 144.85 397.806 146.64 397.961C148.511 397.938 150.357 398.388 152.007 399.269C153.658 400.15 155.059 401.434 156.08 403.001C161.42 411.161 158.3 428.101 154.68 441.001C162.68 428.461 173.78 413.421 181.56 414.081C183.56 414.241 186.24 415.421 187.9 420.081C188.649 422.207 188.951 424.464 188.785 426.712C188.62 428.959 187.992 431.148 186.94 433.141C179.08 448.821 149.18 458.461 147.92 458.861C147.741 458.891 147.559 458.891 147.38 458.861C147.177 458.95 146.961 459.004 146.74 459.021ZM151.32 453.901C159.9 450.601 178.2 442.501 183.62 431.641C184.46 430.095 184.964 428.389 185.099 426.635C185.233 424.88 184.995 423.117 184.4 421.461C183.2 418.001 181.74 417.881 181.26 417.861H181.04C174.1 417.841 160.12 438.361 151.32 453.901ZM102.46 419.061C101.431 419.667 100.595 420.552 100.049 421.615C99.5041 422.677 99.2719 423.872 99.3799 425.061C101 435.221 128.7 448.061 143.6 453.901C138.52 444.101 124.9 420.141 111.76 416.981C110.883 416.764 109.983 416.65 109.08 416.641C106.661 416.665 104.323 417.519 102.46 419.061ZM140.46 404.461C134.58 412.961 142.34 438.641 147.4 452.141C152.06 439.001 159 414.141 153.08 405.101C152.379 404.031 151.415 403.158 150.281 402.566C149.146 401.974 147.879 401.684 146.6 401.721H146.24C145.106 401.623 143.966 401.825 142.934 402.305C141.902 402.786 141.014 403.53 140.36 404.461H140.46Z" fill="black"/>
</g>
<path d="M240.78 451.661H58V577.221H240.78V451.661Z" fill="#7340FD"/>
<path opacity="0.6" d="M240.78 451.661H58V577.221H240.78V451.661Z" fill="white"/>
<path opacity="0.1" d="M240.78 495.041H58V577.221H240.78V495.041Z" fill="black"/>
<path opacity="0.2" d="M130.62 451.661H58V577.221H130.62V451.661Z" fill="white"/>
<path d="M194.66 451.661H179.8V577.221H194.66V451.661Z" fill="#263238"/>
<path d="M94.5599 451.661H83.6599V577.221H94.5599V451.661Z" fill="#263238"/>
<path opacity="0.2" d="M194.66 451.661H179.8V577.221H194.66V451.661Z" fill="black"/>
<path opacity="0.1" d="M94.5599 451.661H83.6599V577.221H94.5599V451.661Z" fill="black"/>
<path d="M259.76 480.461C252.94 481.161 230.26 482.881 222.4 474.021C221.073 472.574 220.151 470.803 219.726 468.886C219.301 466.969 219.389 464.974 219.98 463.101C221.66 456.321 226.72 452.961 233.86 452.961C243.18 452.961 255.52 459.301 261.86 466.961C266.08 459.641 274.32 448.541 286.72 449.801C295.72 450.701 302.52 457.541 301.88 465.061C301.54 469.061 297.74 481.861 263.88 480.301L261.36 486.961L259.76 480.461ZM233.76 460.461C230.06 460.461 228.04 461.581 227.18 465.021C226.58 467.441 227.18 468.221 227.94 469.021C232.14 473.741 247.06 474.421 257.34 473.521C253.68 467.501 242.1 460.501 233.86 460.501L233.76 460.461ZM267.04 472.921C287.94 473.441 294.18 467.801 294.46 464.481C294.7 461.521 291.16 457.841 286.06 457.341C285.667 457.322 285.273 457.322 284.88 457.341C275.86 457.301 269.58 467.701 267.04 472.921Z" fill="#7340FD"/>
<path d="M188.8 577.201H335.56V476.381H188.8V577.201Z" fill="#263238"/>
<path opacity="0.5" d="M188.8 577.201H335.56V476.381H188.8V577.201Z" fill="white"/>
<path opacity="0.2" d="M188.8 577.221H335.56V511.241H188.8V577.221Z" fill="black"/>
<path d="M225.82 577.201H237.74V476.381H225.82V577.201Z" fill="#7340FD"/>
<path d="M306.18 577.201H314.94V476.381H306.18V577.201Z" fill="#7340FD"/>
<path opacity="0.2" d="M277.24 577.201H335.56V476.381H277.24V577.201Z" fill="black"/>
<path opacity="0.2" d="M225.82 577.201H237.74V476.381H225.82V577.201Z" fill="white"/>
<path d="M111.04 523.301C110.14 520.921 110.06 517.301 114.74 513.121C115.938 512.022 117.372 511.211 118.932 510.75C120.492 510.289 122.136 510.19 123.74 510.461C132.6 511.861 141.24 523.361 144.64 528.461C149.52 521.761 163.34 503.961 172.1 505.541C175.06 506.061 177.08 508.421 178.1 512.561C178.75 514.71 178.89 516.98 178.508 519.192C178.126 521.404 177.233 523.496 175.9 525.301C168.48 535.301 148.5 536.281 147.64 536.301C131.76 536.161 114.14 531.721 111.04 523.301ZM146.2 532.561H147.56C148.48 532.561 166.74 531.461 173 523.021C174 521.651 174.663 520.063 174.934 518.388C175.205 516.713 175.077 514.998 174.56 513.381C173.9 510.781 172.86 509.382 171.46 509.082C171.254 509.061 171.046 509.061 170.84 509.082C164.66 508.962 152.6 523.101 146.12 532.481L146.2 532.561ZM117.04 515.821C114.56 517.981 113.66 520.041 114.36 521.941C116.08 526.561 127.18 531.521 142.76 532.361C141.58 530.481 131.96 515.421 123.06 514.021C122.651 513.949 122.235 513.916 121.82 513.921C120.045 513.935 118.34 514.613 117.04 515.821Z" fill="#E0E0E0"/>
<path d="M68.8399 577.221H215.62V531.601H68.8399V577.221Z" fill="#7340FD"/>
<path opacity="0.2" d="M68.8399 577.221H215.62V531.601H68.8399V577.221Z" fill="white"/>
<path opacity="0.2" d="M68.8399 577.221H215.62V548.041H68.8399V577.221Z" fill="black"/>
<path d="M105.88 577.221H117.8V531.601H105.88V577.221Z" fill="white"/>
<path d="M186.24 577.221H195V531.601H186.24V577.221Z" fill="white"/>
<path opacity="0.2" d="M157.28 577.221H215.6V531.601H157.28V577.221Z" fill="black"/>
<path d="M284.306 217.516C273.235 226.205 261.287 233.719 248.657 239.935C243.417 242.676 237.929 238.575 236.609 233.754C234.773 228.004 236.196 222.029 237.516 216.712C240.406 206.922 244.205 197.423 248.863 188.338C251.132 183.867 253.402 179.478 255.96 175.13C256.524 174.18 257.419 173.472 258.473 173.139C259.527 172.807 260.667 172.874 261.675 173.327C262.683 173.781 263.488 174.589 263.937 175.598C264.386 176.608 264.447 177.746 264.109 178.798C261.076 187.926 258.023 197.24 255.465 206.471C253.67 213.642 251.174 221.102 251.772 228.231C251.772 228.664 252.164 228.499 251.215 227.263L241.127 225.573C246.614 222.091 251.999 218.402 257.383 214.734C262.768 211.066 268.152 207.048 273.269 203.319C275.172 202.009 277.505 201.476 279.788 201.832C282.072 202.187 284.132 203.403 285.546 205.229C286.959 207.056 287.619 209.353 287.388 211.65C287.157 213.947 286.054 216.068 284.306 217.578V217.516Z" fill="#FF9800"/>
<path d="M289.608 194.479C276.714 194.211 257.26 209.583 257.26 209.583C257.26 209.583 261.014 234.454 267.471 236.741C273.929 239.029 289.608 194.479 289.608 194.479Z" fill="#7340FD"/>
<path opacity="0.7" d="M289.608 194.479C289.608 194.479 279.127 224.234 271.783 233.836C270.133 236.02 268.647 237.154 267.471 236.741C264.954 235.835 262.83 231.487 261.282 226.439C259.572 220.893 258.262 215.233 257.363 209.5C257.363 209.5 276.714 194.211 289.608 194.479Z" fill="white"/>
<path opacity="0.1" d="M271.783 233.836C270.133 236.02 268.647 237.153 267.472 236.741C264.955 235.835 262.83 231.487 261.282 226.438C264.413 222.795 268.147 219.714 272.32 217.331C273.888 221.637 273.475 228.355 271.783 233.836Z" fill="black"/>
<path d="M258.353 208.182L266.522 235.608L262.953 236.535L255.279 210.366L258.353 208.182Z" fill="#7340FD"/>
<path d="M316.179 119.391C316.179 119.391 305.204 116.012 298.231 125.264C291.258 134.516 295.281 150.856 295.281 150.856C295.281 150.856 300.5 163.22 291.567 171.194C283.749 178.159 290.268 185.618 302.914 191.017C315.56 196.416 340.833 198.353 348.569 192.047C356.305 185.742 346.382 176.758 350.199 162.746C354.015 148.734 356.8 135.36 343.267 125.119C332.209 116.753 322.245 116.692 316.179 119.391Z" fill="black"/>
<path d="M208.139 582.24C219.362 582.24 220.847 582.075 227.16 581.869C232.565 581.663 233.865 582.343 238.197 582.24C241.828 582.24 241.704 578.696 240.57 574.719C240.012 572.659 239.146 568.537 238.383 565.24L221.879 564.045C219.568 568.455 214.348 574.74 208.015 575.605C201.681 576.471 203.745 582.24 208.139 582.24Z" fill="#7340FD"/>
<path d="M291.299 582.24C302.543 582.24 304.028 582.075 310.341 581.869C315.746 581.663 317.025 582.343 321.378 582.24C325.009 582.24 324.865 578.696 323.751 574.719C323.194 572.659 322.327 568.537 321.564 565.24L305.06 564.045C302.749 568.455 297.509 574.74 291.175 575.605C284.842 576.471 286.822 582.24 291.299 582.24Z" fill="#7340FD"/>
<path d="M263.84 283.29C263.84 283.29 249.214 367.074 246.8 412.221C244.283 459.615 229.079 535.547 221.033 565.199C223.281 567.26 233.927 568.084 238.96 565.57C238.96 565.57 282.862 478.016 277.147 423.266C313.786 320.03 304.895 281.394 304.895 281.394L263.84 283.29Z" fill="black"/>
<path opacity="0.2" d="M287.937 390.42C293.156 373.235 296.931 358.337 299.593 345.561C296.952 335.567 293.197 327.016 288.102 321.885C288.102 321.885 280.778 349.703 287.937 390.42Z" fill="black"/>
<path d="M279.375 275.006C279.375 275.006 291.382 367.836 298.273 412.51C305.514 459.429 306.421 534.702 304.606 565.385C307.247 566.909 316.84 568.764 322.018 567.136C322.018 567.136 346.506 472.246 330.27 417.125C347.971 333.816 322.946 289.884 322.946 289.884L279.375 275.006Z" fill="black"/>
<path d="M268.4 216.28C266.912 224.243 265.968 232.298 265.573 240.389C264.728 252.196 264.233 263.838 263.758 283.29L322.967 289.925C323.648 273.132 327.732 254.36 342.566 218.073C343.414 216.183 343.829 214.128 343.778 212.058C343.728 209.987 343.214 207.955 342.274 206.109C341.334 204.263 339.992 202.651 338.347 201.391C336.702 200.131 334.795 199.254 332.766 198.827C330.456 198.332 327.98 197.858 325.442 197.446C316.587 195.797 307.624 194.792 298.623 194.438C295.673 194.438 292.599 194.438 289.67 194.438C278.983 194.85 269.885 205.894 268.4 216.28Z" fill="#7340FD"/>
<path opacity="0.7" d="M342.566 218.072C342.236 218.91 341.905 219.735 341.575 220.545C337.449 230.58 334.313 239.214 331.776 246.859C325.587 265.651 323.524 278.262 322.967 289.946L263.841 283.29C264.294 263.838 264.79 252.196 265.656 240.389C266.047 232.305 266.984 224.257 268.462 216.3C269.947 205.997 279.045 194.747 289.67 194.479C292.599 194.479 295.673 194.479 298.623 194.479C307.624 194.851 316.586 195.864 325.443 197.508C327.98 197.92 330.435 198.394 332.787 198.909C334.805 199.339 336.701 200.213 338.338 201.468C339.975 202.723 341.31 204.327 342.247 206.164C343.184 208 343.699 210.022 343.754 212.082C343.809 214.142 343.403 216.189 342.566 218.072Z" fill="white"/>
<path d="M258.332 161.077L262.025 163.529C262.711 163.982 263.279 164.592 263.681 165.309C264.083 166.026 264.308 166.829 264.336 167.65L264.604 175.459C264.651 176.994 264.331 178.518 263.671 179.905C263.011 181.292 262.029 182.502 260.808 183.434L259.261 184.608C252.845 180.961 248.595 172.245 248.595 172.245L247.109 169.896C246.793 169.423 246.573 168.892 246.462 168.334C246.352 167.776 246.353 167.202 246.467 166.644C246.58 166.087 246.802 165.557 247.122 165.086C247.441 164.615 247.85 164.212 248.327 163.9L252.927 160.912C253.747 160.413 254.695 160.163 255.654 160.192C256.614 160.221 257.544 160.529 258.332 161.077Z" fill="#FF9800"/>
<path d="M269.411 152.814C273.31 147.559 279.726 145.746 283.852 148.692C287.978 151.639 288.143 158.439 284.264 163.693C280.386 168.948 273.949 170.761 269.823 167.815C265.697 164.868 265.532 158.068 269.411 152.814Z" fill="#7340FD"/>
<path d="M235.969 128.457L249.4 109.912C249.4 109.912 254.928 127.159 265.099 134.639L258.291 143.85L257.218 145.292L250.41 154.524C240.26 147.023 222.106 146.838 222.106 146.838L235.969 128.457Z" fill="#7340FD"/>
<path opacity="0.8" d="M269.411 152.814C273.31 147.559 279.726 145.746 283.852 148.692C287.978 151.639 288.143 158.439 284.264 163.693C280.386 168.948 273.949 170.761 269.823 167.815C265.697 164.868 265.532 158.068 269.411 152.814Z" fill="white"/>
<path opacity="0.8" d="M235.969 128.457L249.4 109.912C249.4 109.912 254.928 127.159 265.099 134.639L258.291 143.85L257.218 145.292L250.41 154.524C240.26 147.023 222.106 146.838 222.106 146.838L235.969 128.457Z" fill="white"/>
<path d="M268.689 164.621C268.689 164.621 259.364 174.924 251.483 178.241C251.212 178.35 250.91 178.358 250.634 178.264C250.357 178.169 250.124 177.978 249.977 177.726L244.696 169.175C244.596 169.012 244.535 168.828 244.517 168.637C244.499 168.447 244.525 168.255 244.593 168.076C244.661 167.898 244.768 167.737 244.907 167.606C245.047 167.474 245.214 167.377 245.397 167.32C248.657 166.352 256.331 163.755 261.117 159.366C267.348 153.638 268.689 164.621 268.689 164.621Z" fill="#7340FD"/>
<path opacity="0.3" d="M268.689 164.621C268.689 164.621 259.364 174.924 251.483 178.241C251.212 178.35 250.91 178.358 250.634 178.264C250.357 178.169 250.124 177.978 249.977 177.726L244.696 169.175C244.596 169.012 244.535 168.828 244.517 168.637C244.499 168.447 244.525 168.255 244.593 168.076C244.661 167.898 244.768 167.737 244.907 167.606C245.047 167.474 245.214 167.377 245.397 167.32C248.657 166.352 256.331 163.755 261.117 159.366C267.348 153.638 268.689 164.621 268.689 164.621Z" fill="black"/>
<path d="M222.147 147.456C224.478 149.166 232.586 142.14 240.281 131.734C247.976 121.328 252.288 111.519 249.956 109.789C247.625 108.058 239.517 115.125 231.843 125.511C224.169 135.896 219.816 145.643 222.147 147.456Z" fill="white"/>
<path opacity="0.4" d="M223.591 144.18C225.324 145.457 231.657 139.914 238.032 131.61C238.404 131.136 238.754 130.642 239.126 130.147L240.405 128.396C246.346 119.947 249.709 112.426 247.976 111.169C246.243 109.912 239.146 116.073 232.4 125.202C225.654 134.33 221.734 142.82 223.591 144.18Z" fill="black"/>
<path d="M270.587 170.123C270.587 170.123 273.516 168.557 279.499 160.458C285.977 151.701 286.163 149.043 286.163 149.043L263.469 132.331C263.469 132.331 262.747 135.711 256.682 143.933C250.617 152.154 247.894 153.411 247.894 153.411L270.587 170.123Z" fill="#7340FD"/>
<path d="M238.032 131.61C238.404 131.136 238.754 130.642 239.126 130.147L240.405 128.396L237.97 127.283C237.71 127.173 237.418 127.16 237.149 127.247C236.88 127.334 236.652 127.515 236.506 127.757L236.258 128.087C236.076 128.299 235.977 128.57 235.977 128.849C235.977 129.129 236.076 129.399 236.258 129.611L238.032 131.61Z" fill="white"/>
<path opacity="0.2" d="M238.032 131.61C238.404 131.136 238.754 130.642 239.126 130.147L240.405 128.396L237.97 127.283C237.71 127.173 237.418 127.16 237.149 127.247C236.88 127.334 236.652 127.515 236.506 127.757L236.258 128.087C236.076 128.299 235.977 128.57 235.977 128.849C235.977 129.129 236.076 129.399 236.258 129.611L238.032 131.61Z" fill="black"/>
<path d="M326.948 166.99C323.648 175.377 319.006 190.873 323.978 197.281C323.978 197.281 315.911 195.221 297.303 203.916C293.177 196.148 297.076 194.273 297.076 194.273C307.164 193.057 308.257 186.03 307.824 179.107L326.948 166.99Z" fill="#FF9800"/>
<path opacity="0.2" d="M319.15 171.936L307.824 179.086C307.979 180.69 307.979 182.304 307.824 183.908C311.62 183.805 317.438 180.364 318.552 176.572C319.035 175.077 319.237 173.505 319.15 171.936Z" fill="black"/>
<path d="M336.294 150.485C332.168 164.126 330.621 169.999 321.853 175.789C308.732 184.506 292.97 177.335 292.97 162.931C292.97 149.97 299.84 129.818 314.756 126.83C317.934 126.086 321.254 126.205 324.371 127.173C327.488 128.141 330.289 129.923 332.486 132.335C334.682 134.747 336.193 137.701 336.862 140.893C337.532 144.084 337.336 147.395 336.294 150.485Z" fill="#FF9800"/>
<path d="M318.201 150.815C317.892 151.969 317.046 152.875 316.283 152.649C315.519 152.422 315.169 151.454 315.478 150.3C315.788 149.146 316.633 148.239 317.376 148.445C318.119 148.651 318.49 149.64 318.201 150.815Z" fill="black"/>
<path d="M303.657 147.621C303.368 148.775 302.502 149.682 301.759 149.476C301.017 149.27 300.645 148.28 300.955 147.106C301.264 145.931 302.11 145.045 302.853 145.272C303.595 145.499 303.967 146.467 303.657 147.621Z" fill="black"/>
<path d="M303.162 145.396L300.624 144.077C300.624 144.077 301.47 146.508 303.162 145.396Z" fill="black"/>
<path d="M307.391 149.27C305.674 151.728 303.649 153.958 301.367 155.905C301.854 156.439 302.456 156.856 303.128 157.124C303.8 157.392 304.524 157.503 305.245 157.45L307.391 149.27Z" fill="#FF9800"/>
<path d="M322.245 143.933C322.153 143.926 322.065 143.898 321.987 143.851C321.908 143.805 321.841 143.741 321.791 143.665C321.309 142.963 320.662 142.392 319.906 142C319.15 141.608 318.31 141.408 317.458 141.419C317.37 141.431 317.281 141.423 317.196 141.398C317.111 141.372 317.033 141.328 316.966 141.27C316.9 141.211 316.847 141.139 316.811 141.058C316.774 140.977 316.756 140.889 316.757 140.801C316.751 140.611 316.818 140.425 316.945 140.284C317.072 140.142 317.248 140.054 317.438 140.038C318.515 140.006 319.584 140.243 320.546 140.729C321.508 141.215 322.333 141.934 322.946 142.82C323.042 142.977 323.074 143.165 323.036 143.345C322.997 143.525 322.891 143.684 322.74 143.788C322.597 143.894 322.422 143.945 322.245 143.933Z" fill="black"/>
<path d="M299.655 138.863C299.479 138.861 299.311 138.795 299.18 138.678C299.049 138.547 298.976 138.369 298.976 138.183C298.976 137.998 299.049 137.82 299.18 137.689C299.943 136.856 300.885 136.208 301.936 135.793C302.987 135.379 304.119 135.21 305.245 135.299C305.335 135.313 305.42 135.346 305.495 135.395C305.571 135.444 305.635 135.509 305.684 135.585C305.733 135.661 305.765 135.746 305.778 135.835C305.791 135.924 305.786 136.016 305.761 136.102C305.721 136.284 305.614 136.445 305.462 136.552C305.309 136.659 305.121 136.704 304.936 136.679C304.043 136.617 303.148 136.759 302.319 137.095C301.489 137.43 300.747 137.951 300.15 138.616C300.016 138.751 299.842 138.837 299.655 138.863Z" fill="black"/>
<path d="M317.685 148.569L315.148 147.25C315.148 147.25 315.994 149.702 317.685 148.569Z" fill="black"/>
<path d="M302.501 162.952C302.716 165.156 302.771 167.374 302.667 169.587L303.822 169.834C305.47 170.306 307.212 170.351 308.883 169.966C310.554 169.58 312.099 168.776 313.374 167.629C314.052 166.907 314.51 166.006 314.694 165.033C314.847 164.398 314.931 163.749 314.942 163.096C312.878 161.427 306.958 160.912 304.276 162.148C303.666 162.372 303.073 162.641 302.501 162.952Z" fill="black"/>
<path d="M304.276 162.148C304.276 162.828 304.276 163.549 304.4 164.209C307.856 164.087 311.314 164.342 314.715 164.971C314.868 164.336 314.951 163.687 314.962 163.034C312.982 161.427 306.958 160.912 304.276 162.148Z" fill="white"/>
<path d="M303.822 169.834C305.471 170.306 307.212 170.351 308.883 169.966C310.554 169.58 312.1 168.776 313.374 167.629C312.466 167.125 311.462 166.819 310.427 166.73C309.393 166.642 308.351 166.772 307.37 167.114C305.942 167.645 304.705 168.593 303.822 169.834Z" fill="#FF9800"/>
<path d="M331.013 160.417C331.013 160.417 327.093 144.798 329.734 132.352C329.734 132.352 313.786 124.233 303.512 133.444C303.512 133.444 307.143 123.945 322.203 124.295C337.264 124.645 351.767 145.251 331.013 160.417Z" fill="black"/>
<path d="M338.11 162.704C337.114 163.833 335.906 164.754 334.553 165.415C333.201 166.076 331.732 166.465 330.229 166.558C326.35 166.702 325.546 162.746 327.588 159.305C329.404 156.234 333.633 152.422 337.078 153.906C340.523 155.389 340.709 159.82 338.11 162.704Z" fill="#FF9800"/>
<path d="M315.808 128.087C315.808 128.087 317.108 154.998 333.983 151.866C350.859 148.734 339.615 120.256 315.808 128.087Z" fill="black"/>
<path opacity="0.1" d="M341.576 220.545C337.449 230.58 334.314 239.214 331.776 246.859C324.432 234.104 330.786 217.145 330.786 217.145C334.685 215.455 338.419 217.063 341.576 220.545Z" fill="black"/>
<path d="M345.681 212.385C349.066 223.023 353.438 233.323 358.74 243.15C360.515 246.274 362.457 249.301 364.558 252.216L363.32 251.001C362.964 250.697 362.508 250.536 362.041 250.547C366.889 250.547 372.665 246.818 377.369 244.366C384.363 240.244 391.336 235.505 397.999 230.828C398.902 230.227 399.991 229.972 401.067 230.107C402.142 230.242 403.134 230.76 403.859 231.564C404.585 232.369 404.997 233.408 405.019 234.491C405.042 235.574 404.674 236.628 403.982 237.463C394.224 248.116 367.343 276.614 352.262 262.973C340.771 249.847 333.262 234.124 328.29 217.434C327.63 215.136 327.912 212.67 329.073 210.58C330.233 208.489 332.178 206.944 334.479 206.286C336.779 205.627 339.248 205.909 341.341 207.068C343.434 208.227 344.98 210.17 345.64 212.468L345.681 212.385Z" fill="#FF9800"/>
<path d="M336.335 200.104C348.528 204.225 361.236 234.331 361.236 234.331C354.731 239.793 347.68 244.572 340.193 248.59C340.193 248.59 322.534 222.75 325.566 211.066C328.599 199.383 336.335 200.104 336.335 200.104Z" fill="#7340FD"/>
<path opacity="0.7" d="M336.335 200.104C348.528 204.225 361.236 234.331 361.236 234.331C354.731 239.793 347.68 244.572 340.193 248.59C340.193 248.59 322.534 222.75 325.566 211.066C328.599 199.383 336.335 200.104 336.335 200.104Z" fill="white"/>
<path d="M400 241.192L414.441 233.115L405.447 221.823C405.447 221.823 394.574 226.068 394.595 235.67L400 241.192Z" fill="#FF9800"/>
<path d="M420.713 223.224L411.986 216.403L405.364 221.823L414.359 233.115L420.713 223.224Z" fill="#FF9800"/>
<path d="M338.687 247.518L361.236 231.508L363.382 236.7L340.833 250.444L338.687 247.518Z" fill="#7340FD"/>
<path d="M289.051 233.671C288.937 233.657 288.832 233.604 288.753 233.522C288.674 233.439 288.626 233.332 288.617 233.218C288.473 232.188 285.255 207.893 294.621 194.067C294.7 193.955 294.819 193.878 294.953 193.851C295.087 193.824 295.227 193.85 295.343 193.922C295.399 193.961 295.446 194.011 295.483 194.069C295.519 194.126 295.544 194.19 295.555 194.257C295.567 194.324 295.565 194.393 295.55 194.459C295.534 194.526 295.506 194.588 295.467 194.644C287.751 205.997 288.886 225.346 289.443 231.281C291.939 226.438 300.727 211.891 320.574 200.372C320.632 200.33 320.699 200.3 320.769 200.285C320.84 200.27 320.913 200.27 320.983 200.285C321.054 200.299 321.121 200.329 321.179 200.371C321.238 200.413 321.287 200.467 321.323 200.53C321.359 200.592 321.382 200.661 321.39 200.733C321.397 200.805 321.39 200.877 321.368 200.946C321.346 201.014 321.31 201.078 321.262 201.131C321.214 201.185 321.155 201.228 321.089 201.258C297.344 215.126 289.67 233.197 289.608 233.383C289.555 233.481 289.473 233.561 289.374 233.613C289.274 233.664 289.162 233.685 289.051 233.671Z" fill="black"/>
<path d="M301.222 202.165C306.854 203.628 307.68 212.468 307.68 212.468C307.68 212.468 322.533 204.225 327.65 197.92C326.031 196.752 324.475 195.5 322.987 194.17C322.987 194.17 304.936 199.239 301.222 202.165Z" fill="#7340FD"/>
<path d="M295.88 200.64C295.88 200.64 290.763 201.423 288.205 208.182C288.308 195.427 294.394 193.943 294.394 193.943C296.066 193.235 297.942 193.176 299.655 193.778C298.329 194.311 297.229 195.285 296.541 196.536C295.853 197.787 295.619 199.237 295.88 200.64Z" fill="#7340FD"/>
<path d="M293.668 232.077L285.35 231.547C284.657 231.502 284.059 232.028 284.014 232.721L283.071 247.486C283.027 248.179 283.554 248.776 284.247 248.82L292.565 249.35C293.259 249.395 293.857 248.869 293.901 248.176L294.844 233.411C294.888 232.718 294.362 232.121 293.668 232.077Z" fill="white"/>
<path opacity="0.2" d="M294.34 234.603L289.656 234.322L289.285 240.504L293.968 240.785L294.34 234.603Z" fill="black"/>
<path opacity="0.2" d="M292.455 242.972L285.187 242.509L285.131 243.393L292.398 243.856L292.455 242.972Z" fill="black"/>
<path opacity="0.2" d="M292.301 245.081L285.033 244.618L284.976 245.502L292.244 245.965L292.301 245.081Z" fill="black"/>
</svg>
