<svg width="768" height="1061" viewBox="0 0 768 1061" fill="none" xmlns="http://www.w3.org/2000/svg">
<rect width="768" height="1061" rx="100" fill="#7340FD"/>
<path d="M155.488 300.204L156.856 309.276L161.752 290.52H165.64L170.5 309.132L172.012 300.204L173.884 290.52H178.276L172.768 315H168.34L163.624 296.784L158.872 315H154.444L148.936 290.52H153.616L155.488 300.204ZM195.009 313.956C193.761 314.46 192.585 314.82 191.481 315.036C190.377 315.252 189.333 315.36 188.349 315.36C185.637 315.36 183.585 314.592 182.193 313.056C180.801 311.52 180.105 309.48 180.105 306.936V304.776C180.105 303.072 180.417 301.596 181.041 300.348C181.665 299.1 182.553 298.128 183.705 297.432C184.857 296.736 186.213 296.388 187.773 296.388C189.045 296.388 190.233 296.652 191.337 297.18C192.465 297.684 193.377 298.488 194.073 299.592C194.793 300.672 195.153 302.064 195.153 303.768C195.153 304.272 195.117 304.812 195.045 305.388C194.973 305.94 194.853 306.528 194.685 307.152H184.101C184.149 308.64 184.521 309.756 185.217 310.5C185.913 311.244 187.029 311.616 188.565 311.616C189.381 311.616 190.221 311.52 191.085 311.328C191.973 311.136 192.885 310.848 193.821 310.464L195.009 313.956ZM187.773 299.88C186.669 299.88 185.805 300.24 185.181 300.96C184.581 301.656 184.233 302.664 184.137 303.984H191.049C191.073 303.864 191.085 303.756 191.085 303.66C191.085 303.54 191.085 303.432 191.085 303.336C191.085 302.184 190.761 301.32 190.113 300.744C189.465 300.168 188.685 299.88 187.773 299.88ZM199.814 309.852V288.36H203.954V309.852C203.954 310.212 204.038 310.56 204.206 310.896C204.398 311.208 204.758 311.364 205.286 311.364H205.862V315.18H204.854C203.486 315.18 202.442 314.916 201.722 314.388C201.002 313.86 200.498 313.188 200.21 312.372C199.946 311.556 199.814 310.716 199.814 309.852ZM213.039 304.812V306.936C213.039 308.472 213.315 309.624 213.867 310.392C214.419 311.16 215.307 311.544 216.531 311.544C217.131 311.544 217.803 311.472 218.547 311.328C219.315 311.16 220.143 310.908 221.031 310.572L222.219 314.064C221.139 314.496 220.119 314.82 219.159 315.036C218.199 315.252 217.251 315.36 216.315 315.36C213.915 315.36 212.079 314.592 210.807 313.056C209.535 311.52 208.899 309.48 208.899 306.936V304.812C208.899 302.244 209.535 300.204 210.807 298.692C212.079 297.156 213.915 296.388 216.315 296.388C217.227 296.388 218.151 296.496 219.087 296.712C220.023 296.928 221.007 297.24 222.039 297.648L220.851 301.212C219.123 300.54 217.683 300.204 216.531 300.204C215.307 300.204 214.419 300.588 213.867 301.356C213.315 302.1 213.039 303.252 213.039 304.812ZM240.948 304.776V306.936C240.948 309.48 240.252 311.52 238.86 313.056C237.468 314.592 235.5 315.36 232.956 315.36C230.412 315.36 228.444 314.592 227.052 313.056C225.66 311.52 224.964 309.48 224.964 306.936V304.776C224.964 302.232 225.648 300.204 227.016 298.692C228.408 297.156 230.388 296.388 232.956 296.388C235.524 296.388 237.492 297.156 238.86 298.692C240.252 300.204 240.948 302.232 240.948 304.776ZM236.7 304.776C236.7 303.312 236.376 302.172 235.728 301.356C235.08 300.516 234.156 300.096 232.956 300.096C231.756 300.096 230.832 300.516 230.184 301.356C229.536 302.172 229.212 303.312 229.212 304.776V306.936C229.212 308.4 229.536 309.552 230.184 310.392C230.832 311.232 231.756 311.652 232.956 311.652C234.156 311.652 235.08 311.232 235.728 310.392C236.376 309.552 236.7 308.4 236.7 306.936V304.776ZM249.73 302.364V315H245.59V296.748H249.514V299.16C250.642 298.176 251.686 297.468 252.646 297.036C253.606 296.604 254.59 296.388 255.598 296.388C257.83 296.388 259.354 297.372 260.17 299.34C261.37 298.284 262.486 297.528 263.518 297.072C264.55 296.616 265.594 296.388 266.65 296.388C268.33 296.388 269.614 296.952 270.502 298.08C271.39 299.184 271.834 300.744 271.834 302.76V315H267.694V303.264C267.694 301.248 266.926 300.24 265.39 300.24C264.79 300.24 264.13 300.384 263.41 300.672C262.69 300.96 261.814 301.524 260.782 302.364V315H256.642V303.264C256.642 301.248 255.874 300.24 254.338 300.24C253.738 300.24 253.078 300.384 252.358 300.672C251.638 300.96 250.762 301.524 249.73 302.364ZM291.161 313.956C289.913 314.46 288.737 314.82 287.633 315.036C286.529 315.252 285.485 315.36 284.501 315.36C281.789 315.36 279.737 314.592 278.345 313.056C276.953 311.52 276.257 309.48 276.257 306.936V304.776C276.257 303.072 276.569 301.596 277.193 300.348C277.817 299.1 278.705 298.128 279.857 297.432C281.009 296.736 282.365 296.388 283.925 296.388C285.197 296.388 286.385 296.652 287.489 297.18C288.617 297.684 289.529 298.488 290.225 299.592C290.945 300.672 291.305 302.064 291.305 303.768C291.305 304.272 291.269 304.812 291.197 305.388C291.125 305.94 291.005 306.528 290.837 307.152H280.253C280.301 308.64 280.673 309.756 281.369 310.5C282.065 311.244 283.181 311.616 284.717 311.616C285.533 311.616 286.373 311.52 287.237 311.328C288.125 311.136 289.037 310.848 289.973 310.464L291.161 313.956ZM283.925 299.88C282.821 299.88 281.957 300.24 281.333 300.96C280.733 301.656 280.385 302.664 280.289 303.984H287.201C287.225 303.864 287.237 303.756 287.237 303.66C287.237 303.54 287.237 303.432 287.237 303.336C287.237 302.184 286.913 301.32 286.265 300.744C285.617 300.168 284.837 299.88 283.925 299.88ZM299.926 307.836H296.686L296.254 298.44V290.52H300.394V298.44L299.926 307.836ZM300.466 315H296.11V310.716H300.466V315Z" fill="white"/>
<path d="M148.26 339.04V337.4H157.92V339.04H153.96V351H152.22V339.04H148.26ZM165.04 351V349.6C164.346 350.2 163.726 350.62 163.18 350.86C162.633 351.087 162.086 351.2 161.54 351.2C160.66 351.2 159.986 350.913 159.52 350.34C159.053 349.753 158.82 348.933 158.82 347.88V341.1H160.46V347.64C160.46 348.333 160.58 348.847 160.82 349.18C161.073 349.5 161.446 349.66 161.94 349.66C162.313 349.66 162.733 349.567 163.2 349.38C163.666 349.193 164.246 348.82 164.94 348.26V341.1H166.58V351H165.04ZM175.312 342.54C174.712 342.54 174.125 342.647 173.552 342.86C172.992 343.073 172.392 343.48 171.752 344.08V351H170.112V341.1H171.672V342.7C172.352 342.033 172.972 341.567 173.532 341.3C174.105 341.033 174.698 340.9 175.312 340.9V342.54ZM182.215 342.44C181.842 342.44 181.402 342.533 180.895 342.72C180.402 342.907 179.802 343.287 179.095 343.86V351H177.455V341.1H179.015V342.48C179.722 341.88 180.362 341.467 180.935 341.24C181.522 341.013 182.082 340.9 182.615 340.9C183.535 340.9 184.235 341.193 184.715 341.78C185.209 342.353 185.455 343.173 185.455 344.24V351H183.815V344.48C183.815 343.12 183.282 342.44 182.215 342.44ZM201.757 337.4L197.597 345.56V351H195.857V345.56L191.677 337.4H193.557L196.817 343.84L199.957 337.4H201.757ZM210.569 345.44V346.64C210.569 348.053 210.202 349.167 209.469 349.98C208.749 350.793 207.715 351.2 206.369 351.2C205.035 351.2 204.002 350.793 203.269 349.98C202.535 349.167 202.169 348.053 202.169 346.64V345.44C202.169 344.053 202.529 342.953 203.249 342.14C203.982 341.313 205.022 340.9 206.369 340.9C207.715 340.9 208.749 341.313 209.469 342.14C210.202 342.953 210.569 344.053 210.569 345.44ZM208.869 345.44C208.869 344.493 208.655 343.753 208.229 343.22C207.802 342.673 207.182 342.4 206.369 342.4C205.569 342.4 204.949 342.673 204.509 343.22C204.082 343.753 203.869 344.493 203.869 345.44V346.64C203.869 347.627 204.082 348.387 204.509 348.92C204.949 349.453 205.569 349.72 206.369 349.72C207.182 349.72 207.802 349.453 208.229 348.92C208.655 348.387 208.869 347.627 208.869 346.64V345.44ZM219.649 351V349.6C218.956 350.2 218.336 350.62 217.789 350.86C217.242 351.087 216.696 351.2 216.149 351.2C215.269 351.2 214.596 350.913 214.129 350.34C213.662 349.753 213.429 348.933 213.429 347.88V341.1H215.069V347.64C215.069 348.333 215.189 348.847 215.429 349.18C215.682 349.5 216.056 349.66 216.549 349.66C216.922 349.66 217.342 349.567 217.809 349.38C218.276 349.193 218.856 348.82 219.549 348.26V341.1H221.189V351H219.649ZM229.921 342.54C229.321 342.54 228.734 342.647 228.161 342.86C227.601 343.073 227.001 343.48 226.361 344.08V351H224.721V341.1H226.281V342.7C226.961 342.033 227.581 341.567 228.141 341.3C228.714 341.033 229.308 340.9 229.921 340.9V342.54ZM244.38 349.38V351H236.78V337.4H244.18V339.04H238.52V343.3H243.58V344.94H238.52V349.38H244.38ZM254.168 341.1L250.668 351H249.128L245.588 341.1H247.288L248.948 345.92L249.948 348.94L250.928 345.92L252.548 341.1H254.168ZM263.346 350.42C262.746 350.713 262.146 350.913 261.546 351.02C260.946 351.14 260.393 351.2 259.886 351.2C258.46 351.2 257.393 350.793 256.686 349.98C255.993 349.167 255.646 348.053 255.646 346.64V345.44C255.646 344.067 255.993 342.967 256.686 342.14C257.393 341.313 258.386 340.9 259.666 340.9C260.346 340.9 260.966 341.04 261.526 341.32C262.1 341.587 262.553 342 262.886 342.56C263.233 343.107 263.406 343.813 263.406 344.68C263.406 345.24 263.326 345.88 263.166 346.6H257.266V346.64C257.266 347.653 257.473 348.42 257.886 348.94C258.313 349.46 258.993 349.72 259.926 349.72C260.353 349.72 260.82 349.667 261.326 349.56C261.846 349.453 262.353 349.287 262.846 349.06L263.346 350.42ZM259.666 342.34C258.893 342.34 258.306 342.593 257.906 343.1C257.52 343.593 257.306 344.293 257.266 345.2H261.746C261.786 344.96 261.806 344.733 261.806 344.52C261.806 343.773 261.593 343.227 261.166 342.88C260.753 342.52 260.253 342.34 259.666 342.34ZM271.004 342.44C270.631 342.44 270.191 342.533 269.684 342.72C269.191 342.907 268.591 343.287 267.884 343.86V351H266.244V341.1H267.804V342.48C268.511 341.88 269.151 341.467 269.724 341.24C270.311 341.013 270.871 340.9 271.404 340.9C272.324 340.9 273.024 341.193 273.504 341.78C273.998 342.353 274.244 343.173 274.244 344.24V351H272.604V344.48C272.604 343.12 272.071 342.44 271.004 342.44ZM283.11 350.64C282.363 351.013 281.57 351.2 280.73 351.2C280.01 351.2 279.443 351.053 279.03 350.76C278.63 350.467 278.343 350.073 278.17 349.58C278.01 349.087 277.93 348.54 277.93 347.94V342.54H276.21V341.1H277.93V338.34H279.57V341.1H282.81V342.54H279.57V347.88C279.57 348.573 279.683 349.053 279.91 349.32C280.15 349.573 280.517 349.7 281.01 349.7C281.25 349.7 281.497 349.673 281.75 349.62C282.017 349.553 282.303 349.447 282.61 349.3L283.11 350.64ZM287.688 349.74C289.021 349.74 289.688 349.287 289.688 348.38C289.688 347.993 289.568 347.687 289.328 347.46C289.088 347.233 288.648 347.04 288.008 346.88L286.908 346.6C286.094 346.4 285.488 346.053 285.088 345.56C284.688 345.053 284.488 344.453 284.488 343.76C284.488 343.253 284.601 342.787 284.828 342.36C285.054 341.92 285.414 341.567 285.908 341.3C286.401 341.033 287.041 340.9 287.828 340.9C288.334 340.9 288.848 340.96 289.368 341.08C289.901 341.187 290.441 341.373 290.988 341.64L290.468 343.02C289.494 342.58 288.614 342.36 287.828 342.36C286.668 342.36 286.088 342.793 286.088 343.66C286.088 343.993 286.194 344.28 286.408 344.52C286.621 344.76 287.021 344.953 287.608 345.1L288.708 345.38C289.588 345.593 290.234 345.94 290.648 346.42C291.061 346.9 291.268 347.52 291.268 348.28C291.268 348.827 291.148 349.327 290.908 349.78C290.681 350.22 290.308 350.567 289.788 350.82C289.281 351.073 288.594 351.2 287.728 351.2C287.154 351.2 286.581 351.14 286.008 351.02C285.448 350.9 284.868 350.707 284.268 350.44L284.708 349.08C285.281 349.307 285.801 349.473 286.268 349.58C286.734 349.687 287.208 349.74 287.688 349.74ZM300.337 351H298.597V337.4H300.337V351ZM308.993 342.44C308.619 342.44 308.179 342.533 307.673 342.72C307.179 342.907 306.579 343.287 305.873 343.86V351H304.233V341.1H305.793V342.48C306.499 341.88 307.139 341.467 307.713 341.24C308.299 341.013 308.859 340.9 309.393 340.9C310.313 340.9 311.013 341.193 311.493 341.78C311.986 342.353 312.233 343.173 312.233 344.24V351H310.593V344.48C310.593 343.12 310.059 342.44 308.993 342.44ZM321.098 350.64C320.352 351.013 319.558 351.2 318.718 351.2C317.998 351.2 317.432 351.053 317.018 350.76C316.618 350.467 316.332 350.073 316.158 349.58C315.998 349.087 315.918 348.54 315.918 347.94V342.54H314.198V341.1H315.918V338.34H317.558V341.1H320.798V342.54H317.558V347.88C317.558 348.573 317.672 349.053 317.898 349.32C318.138 349.573 318.505 349.7 318.998 349.7C319.238 349.7 319.485 349.673 319.738 349.62C320.005 349.553 320.292 349.447 320.598 349.3L321.098 350.64ZM331.096 345.44V346.64C331.096 348.053 330.729 349.167 329.996 349.98C329.276 350.793 328.243 351.2 326.896 351.2C325.563 351.2 324.529 350.793 323.796 349.98C323.063 349.167 322.696 348.053 322.696 346.64V345.44C322.696 344.053 323.056 342.953 323.776 342.14C324.509 341.313 325.549 340.9 326.896 340.9C328.243 340.9 329.276 341.313 329.996 342.14C330.729 342.953 331.096 344.053 331.096 345.44ZM329.396 345.44C329.396 344.493 329.183 343.753 328.756 343.22C328.329 342.673 327.709 342.4 326.896 342.4C326.096 342.4 325.476 342.673 325.036 343.22C324.609 343.753 324.396 344.493 324.396 345.44V346.64C324.396 347.627 324.609 348.387 325.036 348.92C325.476 349.453 326.096 349.72 326.896 349.72C327.709 349.72 328.329 349.453 328.756 348.92C329.183 348.387 329.396 347.627 329.396 346.64V345.44ZM338.512 337.4H340.312V346.12C340.312 347.213 340.539 348.067 340.992 348.68C341.459 349.293 342.179 349.6 343.152 349.6C344.139 349.6 344.859 349.293 345.312 348.68C345.765 348.067 345.992 347.213 345.992 346.12V337.4H347.792V346.12C347.792 347.707 347.405 348.953 346.632 349.86C345.859 350.753 344.699 351.2 343.152 351.2C341.592 351.2 340.425 350.753 339.652 349.86C338.892 348.953 338.512 347.707 338.512 346.12V337.4ZM356.161 342.44C355.787 342.44 355.347 342.533 354.841 342.72C354.347 342.907 353.747 343.287 353.041 343.86V351H351.401V341.1H352.961V342.48C353.667 341.88 354.307 341.467 354.881 341.24C355.467 341.013 356.027 340.9 356.561 340.9C357.481 340.9 358.181 341.193 358.661 341.78C359.154 342.353 359.401 343.173 359.401 344.24V351H357.761V344.48C357.761 343.12 357.227 342.44 356.161 342.44ZM368.026 342.54H364.786V351H363.146V342.54H361.426V341.1H363.146V339.46C363.146 338.847 363.246 338.28 363.446 337.76C363.66 337.227 364 336.8 364.466 336.48C364.933 336.16 365.553 336 366.326 336C366.713 336 367.12 336.047 367.546 336.14C367.986 336.22 368.393 336.347 368.766 336.52L368.306 337.9C367.626 337.633 367.033 337.5 366.526 337.5C365.966 337.5 365.533 337.653 365.226 337.96C364.933 338.267 364.786 338.76 364.786 339.44V341.1H368.026V342.54ZM377.659 345.44V346.64C377.659 348.053 377.292 349.167 376.559 349.98C375.839 350.793 374.805 351.2 373.459 351.2C372.125 351.2 371.092 350.793 370.359 349.98C369.625 349.167 369.259 348.053 369.259 346.64V345.44C369.259 344.053 369.619 342.953 370.339 342.14C371.072 341.313 372.112 340.9 373.459 340.9C374.805 340.9 375.839 341.313 376.559 342.14C377.292 342.953 377.659 344.053 377.659 345.44ZM375.959 345.44C375.959 344.493 375.745 343.753 375.319 343.22C374.892 342.673 374.272 342.4 373.459 342.4C372.659 342.4 372.039 342.673 371.599 343.22C371.172 343.753 370.959 344.493 370.959 345.44V346.64C370.959 347.627 371.172 348.387 371.599 348.92C372.039 349.453 372.659 349.72 373.459 349.72C374.272 349.72 374.892 349.453 375.319 348.92C375.745 348.387 375.959 347.627 375.959 346.64V345.44ZM385.839 342.54C385.239 342.54 384.652 342.647 384.079 342.86C383.519 343.073 382.919 343.48 382.279 344.08V351H380.639V341.1H382.199V342.7C382.879 342.033 383.499 341.567 384.059 341.3C384.632 341.033 385.226 340.9 385.839 340.9V342.54ZM395.903 352.24C395.903 353.213 395.503 353.993 394.703 354.58C393.916 355.167 392.829 355.46 391.443 355.46C390.749 355.46 390.023 355.367 389.263 355.18C388.516 354.993 387.809 354.693 387.143 354.28L387.703 353C388.369 353.373 389.009 353.633 389.623 353.78C390.249 353.94 390.856 354.02 391.443 354.02C392.349 354.02 393.049 353.873 393.543 353.58C394.036 353.287 394.283 352.893 394.283 352.4C394.283 352.04 394.163 351.76 393.923 351.56C393.683 351.373 393.296 351.28 392.763 351.28H390.463C389.596 351.28 388.969 351.073 388.583 350.66C388.196 350.247 388.003 349.793 388.003 349.3C388.003 348.953 388.083 348.613 388.243 348.28C388.403 347.933 388.629 347.593 388.923 347.26C388.456 346.98 388.083 346.6 387.803 346.12C387.523 345.627 387.383 345.033 387.383 344.34C387.383 343.58 387.543 342.947 387.863 342.44C388.196 341.933 388.636 341.553 389.183 341.3C389.729 341.033 390.343 340.9 391.023 340.9H391.363C391.829 340.9 392.256 340.967 392.643 341.1H396.203V342.56L394.043 342.26C394.323 342.5 394.549 342.8 394.723 343.16C394.896 343.507 394.983 343.933 394.983 344.44C394.983 345.16 394.816 345.767 394.483 346.26C394.163 346.753 393.729 347.133 393.183 347.4C392.636 347.653 392.029 347.78 391.363 347.78H391.023C390.849 347.78 390.683 347.773 390.523 347.76C390.363 347.733 390.203 347.707 390.043 347.68C389.656 348.107 389.463 348.527 389.463 348.94C389.463 349.473 389.836 349.74 390.583 349.74H392.823C393.783 349.74 394.536 349.953 395.083 350.38C395.629 350.807 395.903 351.427 395.903 352.24ZM391.363 346.36C391.883 346.36 392.343 346.193 392.743 345.86C393.143 345.527 393.343 345.02 393.343 344.34C393.343 343.673 393.143 343.173 392.743 342.84C392.343 342.493 391.883 342.32 391.363 342.32H391.023C390.489 342.32 390.023 342.493 389.623 342.84C389.223 343.173 389.023 343.673 389.023 344.34C389.023 345.02 389.223 345.527 389.623 345.86C390.023 346.193 390.489 346.36 391.023 346.36H391.363ZM405.553 350.42C404.953 350.713 404.353 350.913 403.753 351.02C403.153 351.14 402.6 351.2 402.093 351.2C400.667 351.2 399.6 350.793 398.893 349.98C398.2 349.167 397.853 348.053 397.853 346.64V345.44C397.853 344.067 398.2 342.967 398.893 342.14C399.6 341.313 400.593 340.9 401.873 340.9C402.553 340.9 403.173 341.04 403.733 341.32C404.307 341.587 404.76 342 405.093 342.56C405.44 343.107 405.613 343.813 405.613 344.68C405.613 345.24 405.533 345.88 405.373 346.6H399.473V346.64C399.473 347.653 399.68 348.42 400.093 348.94C400.52 349.46 401.2 349.72 402.133 349.72C402.56 349.72 403.027 349.667 403.533 349.56C404.053 349.453 404.56 349.287 405.053 349.06L405.553 350.42ZM401.873 342.34C401.1 342.34 400.513 342.593 400.113 343.1C399.727 343.593 399.513 344.293 399.473 345.2H403.953C403.993 344.96 404.013 344.733 404.013 344.52C404.013 343.773 403.8 343.227 403.373 342.88C402.96 342.52 402.46 342.34 401.873 342.34ZM413.891 350.64C413.145 351.013 412.351 351.2 411.511 351.2C410.791 351.2 410.225 351.053 409.811 350.76C409.411 350.467 409.125 350.073 408.951 349.58C408.791 349.087 408.711 348.54 408.711 347.94V342.54H406.991V341.1H408.711V338.34H410.351V341.1H413.591V342.54H410.351V347.88C410.351 348.573 410.465 349.053 410.691 349.32C410.931 349.573 411.298 349.7 411.791 349.7C412.031 349.7 412.278 349.673 412.531 349.62C412.798 349.553 413.085 349.447 413.391 349.3L413.891 350.64ZM421.489 350.64C420.742 351.013 419.949 351.2 419.109 351.2C418.389 351.2 417.822 351.053 417.409 350.76C417.009 350.467 416.722 350.073 416.549 349.58C416.389 349.087 416.309 348.54 416.309 347.94V342.54H414.589V341.1H416.309V338.34H417.949V341.1H421.189V342.54H417.949V347.88C417.949 348.573 418.062 349.053 418.289 349.32C418.529 349.573 418.896 349.7 419.389 349.7C419.629 349.7 419.876 349.673 420.129 349.62C420.396 349.553 420.682 349.447 420.989 349.3L421.489 350.64ZM430.887 351.1C430.273 351.1 429.78 350.96 429.407 350.68C429.047 350.4 428.793 350.053 428.647 349.64C427.993 350.213 427.4 350.62 426.867 350.86C426.333 351.087 425.8 351.2 425.267 351.2C424.4 351.2 423.76 350.92 423.347 350.36C422.933 349.8 422.727 349.113 422.727 348.3C422.727 347.753 422.827 347.267 423.027 346.84C423.227 346.413 423.567 346.08 424.047 345.84C424.527 345.587 425.173 345.46 425.987 345.46C426.347 345.46 426.74 345.487 427.167 345.54C427.593 345.58 428.027 345.633 428.467 345.7V344.36C428.467 343.613 428.3 343.107 427.967 342.84C427.647 342.56 427.173 342.42 426.547 342.42C425.693 342.42 424.74 342.653 423.687 343.12L423.167 341.76C423.78 341.48 424.367 341.267 424.927 341.12C425.487 340.973 426.053 340.9 426.627 340.9C427.56 340.9 428.273 341.053 428.767 341.36C429.26 341.667 429.6 342.073 429.787 342.58C429.973 343.087 430.067 343.64 430.067 344.24V348.52C430.067 348.827 430.127 349.087 430.247 349.3C430.367 349.5 430.607 349.6 430.967 349.6H431.187V351.1H430.887ZM424.347 348.28C424.347 348.733 424.453 349.1 424.667 349.38C424.88 349.66 425.187 349.8 425.587 349.8C425.933 349.8 426.333 349.7 426.787 349.5C427.24 349.287 427.8 348.867 428.467 348.24V346.98C427.56 346.833 426.76 346.76 426.067 346.76C425.453 346.76 425.013 346.887 424.747 347.14C424.48 347.393 424.347 347.773 424.347 348.28ZM441.51 346.64C441.51 348.027 441.163 349.133 440.47 349.96C439.777 350.787 438.757 351.2 437.41 351.2C436.077 351.2 434.757 350.847 433.45 350.14V336.2H435.09V342.44C435.69 341.88 436.237 341.487 436.73 341.26C437.237 341.02 437.75 340.9 438.27 340.9C439.31 340.9 440.11 341.3 440.67 342.1C441.23 342.9 441.51 344.027 441.51 345.48V346.64ZM437.87 342.44C437.497 342.44 437.097 342.54 436.67 342.74C436.257 342.94 435.73 343.353 435.09 343.98V349.22C435.877 349.553 436.617 349.72 437.31 349.72C438.203 349.72 438.843 349.447 439.23 348.9C439.617 348.34 439.81 347.587 439.81 346.64V345.48C439.81 344.44 439.65 343.673 439.33 343.18C439.01 342.687 438.523 342.44 437.87 342.44ZM444.525 348.6V336.2H446.165V348.52C446.165 348.88 446.218 349.153 446.325 349.34C446.445 349.513 446.678 349.6 447.025 349.6H447.345V351.1H446.885C446.005 351.1 445.392 350.867 445.045 350.4C444.698 349.933 444.525 349.333 444.525 348.6ZM456.999 350.42C456.399 350.713 455.799 350.913 455.199 351.02C454.599 351.14 454.045 351.2 453.539 351.2C452.112 351.2 451.045 350.793 450.339 349.98C449.645 349.167 449.299 348.053 449.299 346.64V345.44C449.299 344.067 449.645 342.967 450.339 342.14C451.045 341.313 452.039 340.9 453.319 340.9C453.999 340.9 454.619 341.04 455.179 341.32C455.752 341.587 456.205 342 456.539 342.56C456.885 343.107 457.059 343.813 457.059 344.68C457.059 345.24 456.979 345.88 456.819 346.6H450.919V346.64C450.919 347.653 451.125 348.42 451.539 348.94C451.965 349.46 452.645 349.72 453.579 349.72C454.005 349.72 454.472 349.667 454.979 349.56C455.499 349.453 456.005 349.287 456.499 349.06L456.999 350.42ZM453.319 342.34C452.545 342.34 451.959 342.593 451.559 343.1C451.172 343.593 450.959 344.293 450.919 345.2H455.399C455.439 344.96 455.459 344.733 455.459 344.52C455.459 343.773 455.245 343.227 454.819 342.88C454.405 342.52 453.905 342.34 453.319 342.34ZM466.652 337.4L470.792 347.48L474.952 337.4H476.932V351H475.232V345.18L475.452 339.94L471.552 349.4H469.912L466.092 339.9L466.312 345.18V351H464.612V337.4H466.652ZM488.674 345.44V346.64C488.674 348.053 488.308 349.167 487.574 349.98C486.854 350.793 485.821 351.2 484.474 351.2C483.141 351.2 482.108 350.793 481.374 349.98C480.641 349.167 480.274 348.053 480.274 346.64V345.44C480.274 344.053 480.634 342.953 481.354 342.14C482.088 341.313 483.128 340.9 484.474 340.9C485.821 340.9 486.854 341.313 487.574 342.14C488.308 342.953 488.674 344.053 488.674 345.44ZM486.974 345.44C486.974 344.493 486.761 343.753 486.334 343.22C485.908 342.673 485.288 342.4 484.474 342.4C483.674 342.4 483.054 342.673 482.614 343.22C482.188 343.753 481.974 344.493 481.974 345.44V346.64C481.974 347.627 482.188 348.387 482.614 348.92C483.054 349.453 483.674 349.72 484.474 349.72C485.288 349.72 485.908 349.453 486.334 348.92C486.761 348.387 486.974 347.627 486.974 346.64V345.44ZM496.315 342.44C495.941 342.44 495.521 342.54 495.055 342.74C494.588 342.927 494.001 343.3 493.295 343.86V351H491.655V341.1H493.215V342.48C493.921 341.893 494.548 341.487 495.095 341.26C495.641 341.02 496.181 340.9 496.715 340.9C497.341 340.9 497.861 341.047 498.275 341.34C498.688 341.62 498.995 342.027 499.195 342.56C499.928 341.933 500.581 341.5 501.155 341.26C501.741 341.02 502.315 340.9 502.875 340.9C503.755 340.9 504.428 341.193 504.895 341.78C505.361 342.353 505.595 343.173 505.595 344.24V351H503.955V344.48C503.955 343.12 503.461 342.44 502.475 342.44C502.101 342.44 501.675 342.54 501.195 342.74C500.728 342.927 500.141 343.3 499.435 343.86C499.448 343.913 499.455 343.973 499.455 344.04C499.455 344.107 499.455 344.173 499.455 344.24V351H497.815V344.48C497.815 343.12 497.315 342.44 496.315 342.44ZM516.217 350.42C515.617 350.713 515.017 350.913 514.417 351.02C513.817 351.14 513.264 351.2 512.757 351.2C511.331 351.2 510.264 350.793 509.557 349.98C508.864 349.167 508.517 348.053 508.517 346.64V345.44C508.517 344.067 508.864 342.967 509.557 342.14C510.264 341.313 511.257 340.9 512.537 340.9C513.217 340.9 513.837 341.04 514.397 341.32C514.971 341.587 515.424 342 515.757 342.56C516.104 343.107 516.277 343.813 516.277 344.68C516.277 345.24 516.197 345.88 516.037 346.6H510.137V346.64C510.137 347.653 510.344 348.42 510.757 348.94C511.184 349.46 511.864 349.72 512.797 349.72C513.224 349.72 513.691 349.667 514.197 349.56C514.717 349.453 515.224 349.287 515.717 349.06L516.217 350.42ZM512.537 342.34C511.764 342.34 511.177 342.593 510.777 343.1C510.391 343.593 510.177 344.293 510.137 345.2H514.617C514.657 344.96 514.677 344.733 514.677 344.52C514.677 343.773 514.464 343.227 514.037 342.88C513.624 342.52 513.124 342.34 512.537 342.34ZM523.875 342.44C523.502 342.44 523.062 342.533 522.555 342.72C522.062 342.907 521.462 343.287 520.755 343.86V351H519.115V341.1H520.675V342.48C521.382 341.88 522.022 341.467 522.595 341.24C523.182 341.013 523.742 340.9 524.275 340.9C525.195 340.9 525.895 341.193 526.375 341.78C526.869 342.353 527.115 343.173 527.115 344.24V351H525.475V344.48C525.475 343.12 524.942 342.44 523.875 342.44ZM535.981 350.64C535.235 351.013 534.441 351.2 533.601 351.2C532.881 351.2 532.315 351.053 531.901 350.76C531.501 350.467 531.215 350.073 531.041 349.58C530.881 349.087 530.801 348.54 530.801 347.94V342.54H529.081V341.1H530.801V338.34H532.441V341.1H535.681V342.54H532.441V347.88C532.441 348.573 532.555 349.053 532.781 349.32C533.021 349.573 533.388 349.7 533.881 349.7C534.121 349.7 534.368 349.673 534.621 349.62C534.888 349.553 535.175 349.447 535.481 349.3L535.981 350.64ZM540.559 349.74C541.892 349.74 542.559 349.287 542.559 348.38C542.559 347.993 542.439 347.687 542.199 347.46C541.959 347.233 541.519 347.04 540.879 346.88L539.779 346.6C538.966 346.4 538.359 346.053 537.959 345.56C537.559 345.053 537.359 344.453 537.359 343.76C537.359 343.253 537.472 342.787 537.699 342.36C537.926 341.92 538.286 341.567 538.779 341.3C539.272 341.033 539.912 340.9 540.699 340.9C541.206 340.9 541.719 340.96 542.239 341.08C542.772 341.187 543.312 341.373 543.859 341.64L543.339 343.02C542.366 342.58 541.486 342.36 540.699 342.36C539.539 342.36 538.959 342.793 538.959 343.66C538.959 343.993 539.066 344.28 539.279 344.52C539.492 344.76 539.892 344.953 540.479 345.1L541.579 345.38C542.459 345.593 543.106 345.94 543.519 346.42C543.932 346.9 544.139 347.52 544.139 348.28C544.139 348.827 544.019 349.327 543.779 349.78C543.552 350.22 543.179 350.567 542.659 350.82C542.152 351.073 541.466 351.2 540.599 351.2C540.026 351.2 539.452 351.14 538.879 351.02C538.319 350.9 537.739 350.707 537.139 350.44L537.579 349.08C538.152 349.307 538.672 349.473 539.139 349.58C539.606 349.687 540.079 349.74 540.559 349.74ZM548.452 347.36H547.132L546.972 342.4V337.4H548.612V342.4L548.452 347.36ZM548.712 351H546.872V349.18H548.712V351Z" fill="white"/>
</svg>
