<svg width="247" height="247" viewBox="0 0 247 247" fill="none" xmlns="http://www.w3.org/2000/svg">
<g clip-path="url(#clip0_950_8692)">
<path d="M246.478 0.427734H0.0854492V246.821H246.478V0.427734Z" fill="white"/>
<path d="M22.9196 15.8273H15.4854V23.2615H22.9196V15.8273Z" fill="black"/>
<path d="M30.3539 15.8273H22.9196V23.2615H30.3539V15.8273Z" fill="black"/>
<path d="M37.7882 15.8273H30.3539V23.2615H37.7882V15.8273Z" fill="black"/>
<path d="M45.2224 15.8273H37.7882V23.2615H45.2224V15.8273Z" fill="black"/>
<path d="M52.6567 15.8273H45.2224V23.2615H52.6567V15.8273Z" fill="black"/>
<path d="M60.091 15.8273H52.6567V23.2615H60.091V15.8273Z" fill="black"/>
<path d="M67.5252 15.8273H60.091V23.2615H67.5252V15.8273Z" fill="black"/>
<path d="M82.3938 15.8273H74.9595V23.2615H82.3938V15.8273Z" fill="black"/>
<path d="M97.2623 15.8273H89.8281V23.2615H97.2623V15.8273Z" fill="black"/>
<path d="M134.434 15.8273H126.999V23.2615H134.434V15.8273Z" fill="black"/>
<path d="M141.868 15.8273H134.434V23.2615H141.868V15.8273Z" fill="black"/>
<path d="M156.736 15.8273H149.302V23.2615H156.736V15.8273Z" fill="black"/>
<path d="M171.605 15.8273H164.171V23.2615H171.605V15.8273Z" fill="black"/>
<path d="M186.474 15.8273H179.039V23.2615H186.474V15.8273Z" fill="black"/>
<path d="M193.908 15.8273H186.474V23.2615H193.908V15.8273Z" fill="black"/>
<path d="M201.342 15.8273H193.908V23.2615H201.342V15.8273Z" fill="black"/>
<path d="M208.776 15.8273H201.342V23.2615H208.776V15.8273Z" fill="black"/>
<path d="M216.211 15.8273H208.776V23.2615H216.211V15.8273Z" fill="black"/>
<path d="M223.645 15.8273H216.211V23.2615H223.645V15.8273Z" fill="black"/>
<path d="M231.079 15.8273H223.645V23.2615H231.079V15.8273Z" fill="black"/>
<path d="M22.9196 23.2615H15.4854V30.6958H22.9196V23.2615Z" fill="black"/>
<path d="M67.5252 23.2615H60.091V30.6958H67.5252V23.2615Z" fill="black"/>
<path d="M89.8281 23.2615H82.3938V30.6958H89.8281V23.2615Z" fill="black"/>
<path d="M97.2623 23.2615H89.8281V30.6958H97.2623V23.2615Z" fill="black"/>
<path d="M104.697 23.2615H97.2623V30.6958H104.697V23.2615Z" fill="black"/>
<path d="M112.131 23.2615H104.697V30.6958H112.131V23.2615Z" fill="black"/>
<path d="M126.999 23.2615H119.565V30.6958H126.999V23.2615Z" fill="black"/>
<path d="M134.434 23.2615H126.999V30.6958H134.434V23.2615Z" fill="black"/>
<path d="M186.474 23.2615H179.039V30.6958H186.474V23.2615Z" fill="black"/>
<path d="M231.079 23.2615H223.645V30.6958H231.079V23.2615Z" fill="black"/>
<path d="M22.9196 30.6958H15.4854V38.1301H22.9196V30.6958Z" fill="black"/>
<path d="M37.7882 30.6958H30.3539V38.1301H37.7882V30.6958Z" fill="black"/>
<path d="M45.2224 30.6958H37.7882V38.1301H45.2224V30.6958Z" fill="black"/>
<path d="M52.6567 30.6958H45.2224V38.1301H52.6567V30.6958Z" fill="black"/>
<path d="M67.5252 30.6958H60.091V38.1301H67.5252V30.6958Z" fill="black"/>
<path d="M97.2623 30.6958H89.8281V38.1301H97.2623V30.6958Z" fill="black"/>
<path d="M104.697 30.6958H97.2623V38.1301H104.697V30.6958Z" fill="black"/>
<path d="M112.131 30.6958H104.697V38.1301H112.131V30.6958Z" fill="black"/>
<path d="M119.565 30.6958H112.131V38.1301H119.565V30.6958Z" fill="black"/>
<path d="M134.434 30.6958H126.999V38.1301H134.434V30.6958Z" fill="black"/>
<path d="M141.868 30.6958H134.434V38.1301H141.868V30.6958Z" fill="black"/>
<path d="M164.171 30.6958H156.736V38.1301H164.171V30.6958Z" fill="black"/>
<path d="M171.605 30.6958H164.171V38.1301H171.605V30.6958Z" fill="black"/>
<path d="M186.474 30.6958H179.039V38.1301H186.474V30.6958Z" fill="black"/>
<path d="M201.342 30.6958H193.908V38.1301H201.342V30.6958Z" fill="black"/>
<path d="M208.776 30.6958H201.342V38.1301H208.776V30.6958Z" fill="black"/>
<path d="M216.211 30.6958H208.776V38.1301H216.211V30.6958Z" fill="black"/>
<path d="M231.079 30.6958H223.645V38.1301H231.079V30.6958Z" fill="black"/>
<path d="M22.9196 38.1301H15.4854V45.5644H22.9196V38.1301Z" fill="black"/>
<path d="M37.7882 38.1301H30.3539V45.5644H37.7882V38.1301Z" fill="black"/>
<path d="M45.2224 38.1301H37.7882V45.5644H45.2224V38.1301Z" fill="black"/>
<path d="M52.6567 38.1301H45.2224V45.5644H52.6567V38.1301Z" fill="black"/>
<path d="M67.5252 38.1301H60.091V45.5644H67.5252V38.1301Z" fill="black"/>
<path d="M82.3938 38.1301H74.9595V45.5644H82.3938V38.1301Z" fill="black"/>
<path d="M89.8281 38.1301H82.3938V45.5644H89.8281V38.1301Z" fill="black"/>
<path d="M97.2623 38.1301H89.8281V45.5644H97.2623V38.1301Z" fill="black"/>
<path d="M104.697 38.1301H97.2623V45.5644H104.697V38.1301Z" fill="black"/>
<path d="M119.565 38.1301H112.131V45.5644H119.565V38.1301Z" fill="black"/>
<path d="M141.868 38.1301H134.434V45.5644H141.868V38.1301Z" fill="black"/>
<path d="M164.171 38.1301H156.736V45.5644H164.171V38.1301Z" fill="black"/>
<path d="M186.474 38.1301H179.039V45.5644H186.474V38.1301Z" fill="black"/>
<path d="M201.342 38.1301H193.908V45.5644H201.342V38.1301Z" fill="black"/>
<path d="M208.776 38.1301H201.342V45.5644H208.776V38.1301Z" fill="black"/>
<path d="M216.211 38.1301H208.776V45.5644H216.211V38.1301Z" fill="black"/>
<path d="M231.079 38.1301H223.645V45.5644H231.079V38.1301Z" fill="black"/>
<path d="M22.9196 45.5644H15.4854V52.9986H22.9196V45.5644Z" fill="black"/>
<path d="M37.7882 45.5644H30.3539V52.9986H37.7882V45.5644Z" fill="black"/>
<path d="M45.2224 45.5644H37.7882V52.9986H45.2224V45.5644Z" fill="black"/>
<path d="M52.6567 45.5644H45.2224V52.9986H52.6567V45.5644Z" fill="black"/>
<path d="M67.5252 45.5644H60.091V52.9986H67.5252V45.5644Z" fill="black"/>
<path d="M119.565 45.5644H112.131V52.9986H119.565V45.5644Z" fill="black"/>
<path d="M126.999 45.5644H119.565V52.9986H126.999V45.5644Z" fill="black"/>
<path d="M134.434 45.5644H126.999V52.9986H134.434V45.5644Z" fill="black"/>
<path d="M149.302 45.5644H141.868V52.9986H149.302V45.5644Z" fill="black"/>
<path d="M186.474 45.5644H179.039V52.9986H186.474V45.5644Z" fill="black"/>
<path d="M201.342 45.5644H193.908V52.9986H201.342V45.5644Z" fill="black"/>
<path d="M208.776 45.5644H201.342V52.9986H208.776V45.5644Z" fill="black"/>
<path d="M216.211 45.5644H208.776V52.9986H216.211V45.5644Z" fill="black"/>
<path d="M231.079 45.5644H223.645V52.9986H231.079V45.5644Z" fill="black"/>
<path d="M22.9196 52.9986H15.4854V60.4329H22.9196V52.9986Z" fill="black"/>
<path d="M67.5252 52.9986H60.091V60.4329H67.5252V52.9986Z" fill="black"/>
<path d="M82.3938 52.9986H74.9595V60.4329H82.3938V52.9986Z" fill="black"/>
<path d="M89.8281 52.9986H82.3938V60.4329H89.8281V52.9986Z" fill="black"/>
<path d="M97.2623 52.9986H89.8281V60.4329H97.2623V52.9986Z" fill="black"/>
<path d="M104.697 52.9986H97.2623V60.4329H104.697V52.9986Z" fill="black"/>
<path d="M112.131 52.9986H104.697V60.4329H112.131V52.9986Z" fill="black"/>
<path d="M119.565 52.9986H112.131V60.4329H119.565V52.9986Z" fill="black"/>
<path d="M134.434 52.9986H126.999V60.4329H134.434V52.9986Z" fill="black"/>
<path d="M141.868 52.9986H134.434V60.4329H141.868V52.9986Z" fill="black"/>
<path d="M186.474 52.9986H179.039V60.4329H186.474V52.9986Z" fill="black"/>
<path d="M231.079 52.9986H223.645V60.4329H231.079V52.9986Z" fill="black"/>
<path d="M22.9196 60.4329H15.4854V67.8672H22.9196V60.4329Z" fill="black"/>
<path d="M30.3539 60.4329H22.9196V67.8672H30.3539V60.4329Z" fill="black"/>
<path d="M37.7882 60.4329H30.3539V67.8672H37.7882V60.4329Z" fill="black"/>
<path d="M45.2224 60.4329H37.7882V67.8672H45.2224V60.4329Z" fill="black"/>
<path d="M52.6567 60.4329H45.2224V67.8672H52.6567V60.4329Z" fill="black"/>
<path d="M60.091 60.4329H52.6567V67.8672H60.091V60.4329Z" fill="black"/>
<path d="M67.5252 60.4329H60.091V67.8672H67.5252V60.4329Z" fill="black"/>
<path d="M82.3938 60.4329H74.9595V67.8672H82.3938V60.4329Z" fill="black"/>
<path d="M97.2623 60.4329H89.8281V67.8672H97.2623V60.4329Z" fill="black"/>
<path d="M112.131 60.4329H104.697V67.8672H112.131V60.4329Z" fill="black"/>
<path d="M126.999 60.4329H119.565V67.8672H126.999V60.4329Z" fill="black"/>
<path d="M141.868 60.4329H134.434V67.8672H141.868V60.4329Z" fill="black"/>
<path d="M156.736 60.4329H149.302V67.8672H156.736V60.4329Z" fill="black"/>
<path d="M171.605 60.4329H164.171V67.8672H171.605V60.4329Z" fill="black"/>
<path d="M186.474 60.4329H179.039V67.8672H186.474V60.4329Z" fill="black"/>
<path d="M193.908 60.4329H186.474V67.8672H193.908V60.4329Z" fill="black"/>
<path d="M201.342 60.4329H193.908V67.8672H201.342V60.4329Z" fill="black"/>
<path d="M208.776 60.4329H201.342V67.8672H208.776V60.4329Z" fill="black"/>
<path d="M216.211 60.4329H208.776V67.8672H216.211V60.4329Z" fill="black"/>
<path d="M223.645 60.4329H216.211V67.8672H223.645V60.4329Z" fill="black"/>
<path d="M231.079 60.4329H223.645V67.8672H231.079V60.4329Z" fill="black"/>
<path d="M89.8281 67.8672H82.3938V75.3014H89.8281V67.8672Z" fill="black"/>
<path d="M126.999 67.8672H119.565V75.3014H126.999V67.8672Z" fill="black"/>
<path d="M149.302 67.8672H141.868V75.3014H149.302V67.8672Z" fill="black"/>
<path d="M156.736 67.8672H149.302V75.3014H156.736V67.8672Z" fill="black"/>
<path d="M164.171 67.8672H156.736V75.3014H164.171V67.8672Z" fill="black"/>
<path d="M171.605 67.8672H164.171V75.3014H171.605V67.8672Z" fill="black"/>
<path d="M60.091 75.3014H52.6567V82.7357H60.091V75.3014Z" fill="black"/>
<path d="M67.5252 75.3014H60.091V82.7357H67.5252V75.3014Z" fill="black"/>
<path d="M82.3938 75.3014H74.9595V82.7357H82.3938V75.3014Z" fill="black"/>
<path d="M89.8281 75.3014H82.3938V82.7357H89.8281V75.3014Z" fill="black"/>
<path d="M104.697 75.3014H97.2623V82.7357H104.697V75.3014Z" fill="black"/>
<path d="M112.131 75.3014H104.697V82.7357H112.131V75.3014Z" fill="black"/>
<path d="M126.999 75.3014H119.565V82.7357H126.999V75.3014Z" fill="black"/>
<path d="M134.434 75.3014H126.999V82.7357H134.434V75.3014Z" fill="black"/>
<path d="M141.868 75.3014H134.434V82.7357H141.868V75.3014Z" fill="black"/>
<path d="M149.302 75.3014H141.868V82.7357H149.302V75.3014Z" fill="black"/>
<path d="M179.039 75.3014H171.605V82.7357H179.039V75.3014Z" fill="black"/>
<path d="M193.908 75.3014H186.474V82.7357H193.908V75.3014Z" fill="black"/>
<path d="M208.776 75.3014H201.342V82.7357H208.776V75.3014Z" fill="black"/>
<path d="M231.079 75.3014H223.645V82.7357H231.079V75.3014Z" fill="black"/>
<path d="M22.9196 82.7357H15.4854V90.17H22.9196V82.7357Z" fill="black"/>
<path d="M45.2224 82.7357H37.7882V90.17H45.2224V82.7357Z" fill="black"/>
<path d="M74.9595 82.7357H67.5252V90.17H74.9595V82.7357Z" fill="black"/>
<path d="M82.3938 82.7357H74.9595V90.17H82.3938V82.7357Z" fill="black"/>
<path d="M89.8281 82.7357H82.3938V90.17H89.8281V82.7357Z" fill="black"/>
<path d="M134.434 82.7357H126.999V90.17H134.434V82.7357Z" fill="black"/>
<path d="M149.302 82.7357H141.868V90.17H149.302V82.7357Z" fill="black"/>
<path d="M164.171 82.7357H156.736V90.17H164.171V82.7357Z" fill="black"/>
<path d="M179.039 82.7357H171.605V90.17H179.039V82.7357Z" fill="black"/>
<path d="M22.9196 90.17H15.4854V97.6042H22.9196V90.17Z" fill="black"/>
<path d="M45.2224 90.17H37.7882V97.6042H45.2224V90.17Z" fill="black"/>
<path d="M52.6567 90.17H45.2224V97.6042H52.6567V90.17Z" fill="black"/>
<path d="M67.5252 90.17H60.091V97.6042H67.5252V90.17Z" fill="black"/>
<path d="M74.9595 90.17H67.5252V97.6042H74.9595V90.17Z" fill="black"/>
<path d="M82.3938 90.17H74.9595V97.6042H82.3938V90.17Z" fill="black"/>
<path d="M97.2623 90.17H89.8281V97.6042H97.2623V90.17Z" fill="black"/>
<path d="M112.131 90.17H104.697V97.6042H112.131V90.17Z" fill="black"/>
<path d="M134.434 90.17H126.999V97.6042H134.434V90.17Z" fill="black"/>
<path d="M156.736 90.17H149.302V97.6042H156.736V90.17Z" fill="black"/>
<path d="M171.605 90.17H164.171V97.6042H171.605V90.17Z" fill="black"/>
<path d="M186.474 90.17H179.039V97.6042H186.474V90.17Z" fill="black"/>
<path d="M201.342 90.17H193.908V97.6042H201.342V90.17Z" fill="black"/>
<path d="M216.211 90.17H208.776V97.6042H216.211V90.17Z" fill="black"/>
<path d="M231.079 90.17H223.645V97.6042H231.079V90.17Z" fill="black"/>
<path d="M60.091 97.6042H52.6567V105.039H60.091V97.6042Z" fill="black"/>
<path d="M97.2623 97.6042H89.8281V105.039H97.2623V97.6042Z" fill="black"/>
<path d="M119.565 97.6042H112.131V105.039H119.565V97.6042Z" fill="black"/>
<path d="M126.999 97.6042H119.565V105.039H126.999V97.6042Z" fill="black"/>
<path d="M141.868 97.6042H134.434V105.039H141.868V97.6042Z" fill="black"/>
<path d="M156.736 97.6042H149.302V105.039H156.736V97.6042Z" fill="black"/>
<path d="M164.171 97.6042H156.736V105.039H164.171V97.6042Z" fill="black"/>
<path d="M171.605 97.6042H164.171V105.039H171.605V97.6042Z" fill="black"/>
<path d="M179.039 97.6042H171.605V105.039H179.039V97.6042Z" fill="black"/>
<path d="M193.908 97.6042H186.474V105.039H193.908V97.6042Z" fill="black"/>
<path d="M201.342 97.6042H193.908V105.039H201.342V97.6042Z" fill="black"/>
<path d="M37.7882 105.039H30.3539V112.473H37.7882V105.039Z" fill="black"/>
<path d="M67.5252 105.039H60.091V112.473H67.5252V105.039Z" fill="black"/>
<path d="M156.736 105.039H149.302V112.473H156.736V105.039Z" fill="black"/>
<path d="M164.171 105.039H156.736V112.473H164.171V105.039Z" fill="black"/>
<path d="M186.474 105.039H179.039V112.473H186.474V105.039Z" fill="black"/>
<path d="M201.342 105.039H193.908V112.473H201.342V105.039Z" fill="black"/>
<path d="M216.211 105.039H208.776V112.473H216.211V105.039Z" fill="black"/>
<path d="M231.079 105.039H223.645V112.473H231.079V105.039Z" fill="black"/>
<path d="M22.9196 112.473H15.4854V119.907H22.9196V112.473Z" fill="black"/>
<path d="M30.3539 112.473H22.9196V119.907H30.3539V112.473Z" fill="black"/>
<path d="M37.7882 112.473H30.3539V119.907H37.7882V112.473Z" fill="black"/>
<path d="M45.2224 112.473H37.7882V119.907H45.2224V112.473Z" fill="black"/>
<path d="M52.6567 112.473H45.2224V119.907H52.6567V112.473Z" fill="black"/>
<path d="M60.091 112.473H52.6567V119.907H60.091V112.473Z" fill="black"/>
<path d="M179.039 112.473H171.605V119.907H179.039V112.473Z" fill="black"/>
<path d="M186.474 112.473H179.039V119.907H186.474V112.473Z" fill="black"/>
<path d="M193.908 112.473H186.474V119.907H193.908V112.473Z" fill="black"/>
<path d="M223.645 112.473H216.211V119.907H223.645V112.473Z" fill="black"/>
<path d="M231.079 112.473H223.645V119.907H231.079V112.473Z" fill="black"/>
<path d="M30.3539 119.907H22.9196V127.341H30.3539V119.907Z" fill="black"/>
<path d="M45.2224 119.907H37.7882V127.341H45.2224V119.907Z" fill="black"/>
<path d="M52.6567 119.907H45.2224V127.341H52.6567V119.907Z" fill="black"/>
<path d="M60.091 119.907H52.6567V127.341H60.091V119.907Z" fill="black"/>
<path d="M67.5252 119.907H60.091V127.341H67.5252V119.907Z" fill="black"/>
<path d="M74.9595 119.907H67.5252V127.341H74.9595V119.907Z" fill="black"/>
<path d="M186.474 119.907H179.039V127.341H186.474V119.907Z" fill="black"/>
<path d="M201.342 119.907H193.908V127.341H201.342V119.907Z" fill="black"/>
<path d="M208.776 119.907H201.342V127.341H208.776V119.907Z" fill="black"/>
<path d="M231.079 119.907H223.645V127.341H231.079V119.907Z" fill="black"/>
<path d="M30.3539 127.341H22.9196V134.776H30.3539V127.341Z" fill="black"/>
<path d="M45.2224 127.341H37.7882V134.776H45.2224V127.341Z" fill="black"/>
<path d="M179.039 127.341H171.605V134.776H179.039V127.341Z" fill="black"/>
<path d="M186.474 127.341H179.039V134.776H186.474V127.341Z" fill="black"/>
<path d="M201.342 127.341H193.908V134.776H201.342V127.341Z" fill="black"/>
<path d="M208.776 127.341H201.342V134.776H208.776V127.341Z" fill="black"/>
<path d="M223.645 127.341H216.211V134.776H223.645V127.341Z" fill="black"/>
<path d="M22.9196 134.776H15.4854V142.21H22.9196V134.776Z" fill="black"/>
<path d="M37.7882 134.776H30.3539V142.21H37.7882V134.776Z" fill="black"/>
<path d="M52.6567 134.776H45.2224V142.21H52.6567V134.776Z" fill="black"/>
<path d="M67.5252 134.776H60.091V142.21H67.5252V134.776Z" fill="black"/>
<path d="M179.039 134.776H171.605V142.21H179.039V134.776Z" fill="black"/>
<path d="M193.908 134.776H186.474V142.21H193.908V134.776Z" fill="black"/>
<path d="M208.776 134.776H201.342V142.21H208.776V134.776Z" fill="black"/>
<path d="M30.3539 142.21H22.9196V149.644H30.3539V142.21Z" fill="black"/>
<path d="M37.7882 142.21H30.3539V149.644H37.7882V142.21Z" fill="black"/>
<path d="M74.9595 142.21H67.5252V149.644H74.9595V142.21Z" fill="black"/>
<path d="M97.2623 142.21H89.8281V149.644H97.2623V142.21Z" fill="black"/>
<path d="M112.131 142.21H104.697V149.644H112.131V142.21Z" fill="black"/>
<path d="M119.565 142.21H112.131V149.644H119.565V142.21Z" fill="black"/>
<path d="M134.434 142.21H126.999V149.644H134.434V142.21Z" fill="black"/>
<path d="M141.868 142.21H134.434V149.644H141.868V142.21Z" fill="black"/>
<path d="M156.736 142.21H149.302V149.644H156.736V142.21Z" fill="black"/>
<path d="M164.171 142.21H156.736V149.644H164.171V142.21Z" fill="black"/>
<path d="M186.474 142.21H179.039V149.644H186.474V142.21Z" fill="black"/>
<path d="M22.9196 149.644H15.4854V157.078H22.9196V149.644Z" fill="black"/>
<path d="M30.3539 149.644H22.9196V157.078H30.3539V149.644Z" fill="black"/>
<path d="M37.7882 149.644H30.3539V157.078H37.7882V149.644Z" fill="black"/>
<path d="M45.2224 149.644H37.7882V157.078H45.2224V149.644Z" fill="black"/>
<path d="M52.6567 149.644H45.2224V157.078H52.6567V149.644Z" fill="black"/>
<path d="M67.5252 149.644H60.091V157.078H67.5252V149.644Z" fill="black"/>
<path d="M74.9595 149.644H67.5252V157.078H74.9595V149.644Z" fill="black"/>
<path d="M82.3938 149.644H74.9595V157.078H82.3938V149.644Z" fill="black"/>
<path d="M119.565 149.644H112.131V157.078H119.565V149.644Z" fill="black"/>
<path d="M134.434 149.644H126.999V157.078H134.434V149.644Z" fill="black"/>
<path d="M149.302 149.644H141.868V157.078H149.302V149.644Z" fill="black"/>
<path d="M156.736 149.644H149.302V157.078H156.736V149.644Z" fill="black"/>
<path d="M164.171 149.644H156.736V157.078H164.171V149.644Z" fill="black"/>
<path d="M171.605 149.644H164.171V157.078H171.605V149.644Z" fill="black"/>
<path d="M193.908 149.644H186.474V157.078H193.908V149.644Z" fill="black"/>
<path d="M201.342 149.644H193.908V157.078H201.342V149.644Z" fill="black"/>
<path d="M22.9196 157.078H15.4854V164.513H22.9196V157.078Z" fill="black"/>
<path d="M60.091 157.078H52.6567V164.513H60.091V157.078Z" fill="black"/>
<path d="M82.3938 157.078H74.9595V164.513H82.3938V157.078Z" fill="black"/>
<path d="M97.2623 157.078H89.8281V164.513H97.2623V157.078Z" fill="black"/>
<path d="M104.697 157.078H97.2623V164.513H104.697V157.078Z" fill="black"/>
<path d="M119.565 157.078H112.131V164.513H119.565V157.078Z" fill="black"/>
<path d="M164.171 157.078H156.736V164.513H164.171V157.078Z" fill="black"/>
<path d="M208.776 157.078H201.342V164.513H208.776V157.078Z" fill="black"/>
<path d="M216.211 157.078H208.776V164.513H216.211V157.078Z" fill="black"/>
<path d="M223.645 157.078H216.211V164.513H223.645V157.078Z" fill="black"/>
<path d="M37.7882 164.513H30.3539V171.947H37.7882V164.513Z" fill="black"/>
<path d="M67.5252 164.513H60.091V171.947H67.5252V164.513Z" fill="black"/>
<path d="M89.8281 164.513H82.3938V171.947H89.8281V164.513Z" fill="black"/>
<path d="M97.2623 164.513H89.8281V171.947H97.2623V164.513Z" fill="black"/>
<path d="M119.565 164.513H112.131V171.947H119.565V164.513Z" fill="black"/>
<path d="M134.434 164.513H126.999V171.947H134.434V164.513Z" fill="black"/>
<path d="M141.868 164.513H134.434V171.947H141.868V164.513Z" fill="black"/>
<path d="M149.302 164.513H141.868V171.947H149.302V164.513Z" fill="black"/>
<path d="M171.605 164.513H164.171V171.947H171.605V164.513Z" fill="black"/>
<path d="M179.039 164.513H171.605V171.947H179.039V164.513Z" fill="black"/>
<path d="M186.474 164.513H179.039V171.947H186.474V164.513Z" fill="black"/>
<path d="M193.908 164.513H186.474V171.947H193.908V164.513Z" fill="black"/>
<path d="M201.342 164.513H193.908V171.947H201.342V164.513Z" fill="black"/>
<path d="M223.645 164.513H216.211V171.947H223.645V164.513Z" fill="black"/>
<path d="M231.079 164.513H223.645V171.947H231.079V164.513Z" fill="black"/>
<path d="M82.3938 171.947H74.9595V179.381H82.3938V171.947Z" fill="black"/>
<path d="M112.131 171.947H104.697V179.381H112.131V171.947Z" fill="black"/>
<path d="M126.999 171.947H119.565V179.381H126.999V171.947Z" fill="black"/>
<path d="M134.434 171.947H126.999V179.381H134.434V171.947Z" fill="black"/>
<path d="M141.868 171.947H134.434V179.381H141.868V171.947Z" fill="black"/>
<path d="M149.302 171.947H141.868V179.381H149.302V171.947Z" fill="black"/>
<path d="M156.736 171.947H149.302V179.381H156.736V171.947Z" fill="black"/>
<path d="M171.605 171.947H164.171V179.381H171.605V171.947Z" fill="black"/>
<path d="M201.342 171.947H193.908V179.381H201.342V171.947Z" fill="black"/>
<path d="M216.211 171.947H208.776V179.381H216.211V171.947Z" fill="black"/>
<path d="M223.645 171.947H216.211V179.381H223.645V171.947Z" fill="black"/>
<path d="M22.9196 179.381H15.4854V186.815H22.9196V179.381Z" fill="black"/>
<path d="M30.3539 179.381H22.9196V186.815H30.3539V179.381Z" fill="black"/>
<path d="M37.7882 179.381H30.3539V186.815H37.7882V179.381Z" fill="black"/>
<path d="M45.2224 179.381H37.7882V186.815H45.2224V179.381Z" fill="black"/>
<path d="M52.6567 179.381H45.2224V186.815H52.6567V179.381Z" fill="black"/>
<path d="M60.091 179.381H52.6567V186.815H60.091V179.381Z" fill="black"/>
<path d="M67.5252 179.381H60.091V186.815H67.5252V179.381Z" fill="black"/>
<path d="M89.8281 179.381H82.3938V186.815H89.8281V179.381Z" fill="black"/>
<path d="M104.697 179.381H97.2623V186.815H104.697V179.381Z" fill="black"/>
<path d="M112.131 179.381H104.697V186.815H112.131V179.381Z" fill="black"/>
<path d="M126.999 179.381H119.565V186.815H126.999V179.381Z" fill="black"/>
<path d="M149.302 179.381H141.868V186.815H149.302V179.381Z" fill="black"/>
<path d="M171.605 179.381H164.171V186.815H171.605V179.381Z" fill="black"/>
<path d="M186.474 179.381H179.039V186.815H186.474V179.381Z" fill="black"/>
<path d="M201.342 179.381H193.908V186.815H201.342V179.381Z" fill="black"/>
<path d="M208.776 179.381H201.342V186.815H208.776V179.381Z" fill="black"/>
<path d="M231.079 179.381H223.645V186.815H231.079V179.381Z" fill="black"/>
<path d="M22.9196 186.815H15.4854V194.25H22.9196V186.815Z" fill="black"/>
<path d="M67.5252 186.815H60.091V194.25H67.5252V186.815Z" fill="black"/>
<path d="M82.3938 186.815H74.9595V194.25H82.3938V186.815Z" fill="black"/>
<path d="M97.2623 186.815H89.8281V194.25H97.2623V186.815Z" fill="black"/>
<path d="M104.697 186.815H97.2623V194.25H104.697V186.815Z" fill="black"/>
<path d="M119.565 186.815H112.131V194.25H119.565V186.815Z" fill="black"/>
<path d="M149.302 186.815H141.868V194.25H149.302V186.815Z" fill="black"/>
<path d="M156.736 186.815H149.302V194.25H156.736V186.815Z" fill="black"/>
<path d="M164.171 186.815H156.736V194.25H164.171V186.815Z" fill="black"/>
<path d="M171.605 186.815H164.171V194.25H171.605V186.815Z" fill="black"/>
<path d="M201.342 186.815H193.908V194.25H201.342V186.815Z" fill="black"/>
<path d="M208.776 186.815H201.342V194.25H208.776V186.815Z" fill="black"/>
<path d="M223.645 186.815H216.211V194.25H223.645V186.815Z" fill="black"/>
<path d="M22.9196 194.25H15.4854V201.684H22.9196V194.25Z" fill="black"/>
<path d="M37.7882 194.25H30.3539V201.684H37.7882V194.25Z" fill="black"/>
<path d="M45.2224 194.25H37.7882V201.684H45.2224V194.25Z" fill="black"/>
<path d="M52.6567 194.25H45.2224V201.684H52.6567V194.25Z" fill="black"/>
<path d="M67.5252 194.25H60.091V201.684H67.5252V194.25Z" fill="black"/>
<path d="M97.2623 194.25H89.8281V201.684H97.2623V194.25Z" fill="black"/>
<path d="M104.697 194.25H97.2623V201.684H104.697V194.25Z" fill="black"/>
<path d="M126.999 194.25H119.565V201.684H126.999V194.25Z" fill="black"/>
<path d="M134.434 194.25H126.999V201.684H134.434V194.25Z" fill="black"/>
<path d="M156.736 194.25H149.302V201.684H156.736V194.25Z" fill="black"/>
<path d="M164.171 194.25H156.736V201.684H164.171V194.25Z" fill="black"/>
<path d="M171.605 194.25H164.171V201.684H171.605V194.25Z" fill="black"/>
<path d="M179.039 194.25H171.605V201.684H179.039V194.25Z" fill="black"/>
<path d="M186.474 194.25H179.039V201.684H186.474V194.25Z" fill="black"/>
<path d="M193.908 194.25H186.474V201.684H193.908V194.25Z" fill="black"/>
<path d="M201.342 194.25H193.908V201.684H201.342V194.25Z" fill="black"/>
<path d="M208.776 194.25H201.342V201.684H208.776V194.25Z" fill="black"/>
<path d="M216.211 194.25H208.776V201.684H216.211V194.25Z" fill="black"/>
<path d="M223.645 194.25H216.211V201.684H223.645V194.25Z" fill="black"/>
<path d="M231.079 194.25H223.645V201.684H231.079V194.25Z" fill="black"/>
<path d="M22.9196 201.684H15.4854V209.118H22.9196V201.684Z" fill="black"/>
<path d="M37.7882 201.684H30.3539V209.118H37.7882V201.684Z" fill="black"/>
<path d="M45.2224 201.684H37.7882V209.118H45.2224V201.684Z" fill="black"/>
<path d="M52.6567 201.684H45.2224V209.118H52.6567V201.684Z" fill="black"/>
<path d="M67.5252 201.684H60.091V209.118H67.5252V201.684Z" fill="black"/>
<path d="M89.8281 201.684H82.3938V209.118H89.8281V201.684Z" fill="black"/>
<path d="M97.2623 201.684H89.8281V209.118H97.2623V201.684Z" fill="black"/>
<path d="M104.697 201.684H97.2623V209.118H104.697V201.684Z" fill="black"/>
<path d="M112.131 201.684H104.697V209.118H112.131V201.684Z" fill="black"/>
<path d="M134.434 201.684H126.999V209.118H134.434V201.684Z" fill="black"/>
<path d="M141.868 201.684H134.434V209.118H141.868V201.684Z" fill="black"/>
<path d="M156.736 201.684H149.302V209.118H156.736V201.684Z" fill="black"/>
<path d="M201.342 201.684H193.908V209.118H201.342V201.684Z" fill="black"/>
<path d="M208.776 201.684H201.342V209.118H208.776V201.684Z" fill="black"/>
<path d="M22.9196 209.118H15.4854V216.553H22.9196V209.118Z" fill="black"/>
<path d="M37.7882 209.118H30.3539V216.553H37.7882V209.118Z" fill="black"/>
<path d="M45.2224 209.118H37.7882V216.553H45.2224V209.118Z" fill="black"/>
<path d="M52.6567 209.118H45.2224V216.553H52.6567V209.118Z" fill="black"/>
<path d="M67.5252 209.118H60.091V216.553H67.5252V209.118Z" fill="black"/>
<path d="M97.2623 209.118H89.8281V216.553H97.2623V209.118Z" fill="black"/>
<path d="M104.697 209.118H97.2623V216.553H104.697V209.118Z" fill="black"/>
<path d="M119.565 209.118H112.131V216.553H119.565V209.118Z" fill="black"/>
<path d="M126.999 209.118H119.565V216.553H126.999V209.118Z" fill="black"/>
<path d="M171.605 209.118H164.171V216.553H171.605V209.118Z" fill="black"/>
<path d="M179.039 209.118H171.605V216.553H179.039V209.118Z" fill="black"/>
<path d="M193.908 209.118H186.474V216.553H193.908V209.118Z" fill="black"/>
<path d="M22.9196 216.553H15.4854V223.987H22.9196V216.553Z" fill="black"/>
<path d="M67.5252 216.553H60.091V223.987H67.5252V216.553Z" fill="black"/>
<path d="M97.2623 216.553H89.8281V223.987H97.2623V216.553Z" fill="black"/>
<path d="M104.697 216.553H97.2623V223.987H104.697V216.553Z" fill="black"/>
<path d="M112.131 216.553H104.697V223.987H112.131V216.553Z" fill="black"/>
<path d="M126.999 216.553H119.565V223.987H126.999V216.553Z" fill="black"/>
<path d="M134.434 216.553H126.999V223.987H134.434V216.553Z" fill="black"/>
<path d="M141.868 216.553H134.434V223.987H141.868V216.553Z" fill="black"/>
<path d="M156.736 216.553H149.302V223.987H156.736V216.553Z" fill="black"/>
<path d="M164.171 216.553H156.736V223.987H164.171V216.553Z" fill="black"/>
<path d="M179.039 216.553H171.605V223.987H179.039V216.553Z" fill="black"/>
<path d="M186.474 216.553H179.039V223.987H186.474V216.553Z" fill="black"/>
<path d="M193.908 216.553H186.474V223.987H193.908V216.553Z" fill="black"/>
<path d="M201.342 216.553H193.908V223.987H201.342V216.553Z" fill="black"/>
<path d="M223.645 216.553H216.211V223.987H223.645V216.553Z" fill="black"/>
<path d="M231.079 216.553H223.645V223.987H231.079V216.553Z" fill="black"/>
<path d="M22.9196 223.987H15.4854V231.421H22.9196V223.987Z" fill="black"/>
<path d="M30.3539 223.987H22.9196V231.421H30.3539V223.987Z" fill="black"/>
<path d="M37.7882 223.987H30.3539V231.421H37.7882V223.987Z" fill="black"/>
<path d="M45.2224 223.987H37.7882V231.421H45.2224V223.987Z" fill="black"/>
<path d="M52.6567 223.987H45.2224V231.421H52.6567V223.987Z" fill="black"/>
<path d="M60.091 223.987H52.6567V231.421H60.091V223.987Z" fill="black"/>
<path d="M67.5252 223.987H60.091V231.421H67.5252V223.987Z" fill="black"/>
<path d="M89.8281 223.987H82.3938V231.421H89.8281V223.987Z" fill="black"/>
<path d="M112.131 223.987H104.697V231.421H112.131V223.987Z" fill="black"/>
<path d="M126.999 223.987H119.565V231.421H126.999V223.987Z" fill="black"/>
<path d="M149.302 223.987H141.868V231.421H149.302V223.987Z" fill="black"/>
<path d="M156.736 223.987H149.302V231.421H156.736V223.987Z" fill="black"/>
<path d="M164.171 223.987H156.736V231.421H164.171V223.987Z" fill="black"/>
<path d="M179.039 223.987H171.605V231.421H179.039V223.987Z" fill="black"/>
<path d="M208.776 223.987H201.342V231.421H208.776V223.987Z" fill="black"/>
<path d="M216.211 223.987H208.776V231.421H216.211V223.987Z" fill="black"/>
<path d="M101.453 123.826C101.453 125.473 101.107 126.989 100.415 128.375C99.7407 129.741 98.786 130.892 97.5506 131.828C96.3339 132.745 94.9207 133.382 93.3109 133.737V137.444H87.7515V133.737C86.1417 133.382 84.7191 132.745 83.4837 131.828C82.267 130.892 81.3123 129.741 80.6197 128.375C79.9459 126.989 79.6089 125.473 79.6089 123.826C79.6089 121.879 80.0769 120.129 81.0128 118.575C81.9675 117.022 83.2684 115.805 84.9156 114.925C86.5816 114.046 88.4534 113.606 90.5312 113.606C92.6089 113.606 94.4714 114.046 96.1186 114.925C97.7846 115.805 99.0855 117.022 100.021 118.575C100.976 120.129 101.453 121.879 101.453 123.826ZM90.5312 129.442C91.5233 129.442 92.4217 129.208 93.2266 128.74C94.0315 128.272 94.668 127.616 95.1359 126.774C95.6039 125.913 95.8379 124.93 95.8379 123.826C95.8379 122.722 95.6039 121.748 95.1359 120.906C94.668 120.045 94.0315 119.38 93.2266 118.912C92.4217 118.444 91.5233 118.21 90.5312 118.21C89.5391 118.21 88.6406 118.444 87.8357 118.912C87.0308 119.38 86.3944 120.045 85.9264 120.906C85.4585 121.748 85.2245 122.722 85.2245 123.826C85.2245 124.93 85.4585 125.913 85.9264 126.774C86.3944 127.616 87.0308 128.272 87.8357 128.74C88.6406 129.208 89.5391 129.442 90.5312 129.442ZM120.117 118.435V133.653H115.035V132.025C114.473 132.642 113.799 133.11 113.013 133.429C112.227 133.747 111.394 133.906 110.514 133.906C108.549 133.906 106.976 133.326 105.797 132.165C104.637 131.005 104.056 129.264 104.056 126.943V118.435H109.391V126.072C109.391 127.214 109.606 128.047 110.037 128.571C110.467 129.095 111.094 129.357 111.918 129.357C112.76 129.357 113.444 129.067 113.968 128.487C114.511 127.888 114.782 126.98 114.782 125.763V118.435H120.117ZM123.553 118.435H128.888V133.653H123.553V118.435ZM126.22 116.75C125.247 116.75 124.461 116.479 123.862 115.936C123.263 115.393 122.963 114.719 122.963 113.915C122.963 113.11 123.263 112.436 123.862 111.893C124.461 111.35 125.247 111.079 126.22 111.079C127.194 111.079 127.98 111.341 128.579 111.865C129.178 112.37 129.477 113.025 129.477 113.83C129.477 114.673 129.178 115.375 128.579 115.936C127.98 116.479 127.194 116.75 126.22 116.75ZM148.387 118.435L142.098 133.653H136.594L130.333 118.435H135.808L139.458 127.729L143.305 118.435H148.387ZM165.771 118.435V130.874C165.771 133.7 165.012 135.815 163.496 137.219C161.999 138.642 159.837 139.353 157.01 139.353C155.532 139.353 154.146 139.185 152.855 138.848C151.582 138.511 150.496 138.015 149.598 137.359L151.535 133.625C152.134 134.131 152.883 134.524 153.781 134.804C154.699 135.104 155.606 135.254 156.505 135.254C157.853 135.254 158.845 134.945 159.481 134.327C160.118 133.709 160.436 132.792 160.436 131.575V131.239C159.294 132.324 157.871 132.867 156.168 132.867C154.202 132.867 152.63 132.287 151.451 131.126C150.29 129.966 149.71 128.225 149.71 125.904V118.435H155.045V125.033C155.045 126.194 155.26 127.036 155.691 127.56C156.121 128.084 156.748 128.347 157.572 128.347C158.414 128.347 159.097 128.047 159.621 127.448C160.164 126.849 160.436 125.951 160.436 124.753V118.435H165.771Z" fill="#7340FD"/>
<ellipse cx="126.246" cy="114.163" rx="3.36933" ry="2.87797" fill="#FF9800"/>
<rect x="0.0854492" y="129.281" width="246.393" height="3.14277" fill="url(#paint0_linear_950_8692)"/>
<rect x="246.478" y="143.109" width="246.393" height="10.6854" transform="rotate(180 246.478 143.109)" fill="url(#paint1_linear_950_8692)" fill-opacity="0.6"/>
</g>
<defs>
<linearGradient id="paint0_linear_950_8692" x1="262.879" y1="130.957" x2="0.0854492" y2="130.957" gradientUnits="userSpaceOnUse">
<stop offset="0.0154709" stop-color="#7340FD"/>
<stop offset="1" stop-color="#FF9800" stop-opacity="0.81"/>
</linearGradient>
<linearGradient id="paint1_linear_950_8692" x1="509.272" y1="148.808" x2="246.478" y2="148.808" gradientUnits="userSpaceOnUse">
<stop offset="0.0154709" stop-color="#7340FD" stop-opacity="0.31"/>
<stop offset="1" stop-color="#FF9800" stop-opacity="0.45"/>
</linearGradient>
<clipPath id="clip0_950_8692">
<rect width="246.393" height="246.393" fill="white" transform="translate(0.0854492 0.427734)"/>
</clipPath>
</defs>
</svg>
