<svg width="324" height="483" viewBox="0 0 324 483" fill="none" xmlns="http://www.w3.org/2000/svg">
<g opacity="0.6" clip-path="url(#clip0_945_8651)">
<path fill-rule="evenodd" clip-rule="evenodd" d="M320.596 -51C340.821 -27.9067 367.954 -10.0561 398.966 -0.279934C419.804 6.28948 441.322 9.48773 463 11.0306V13C441.151 11.4571 419.437 8.23014 398.39 1.59483C366.454 -8.47677 338.575 -27.0073 318 -51H320.596Z" fill="#F1ECFF"/>
<path fill-rule="evenodd" clip-rule="evenodd" d="M275.379 -51C275.944 -50.1975 276.482 -49.3943 277.057 -48.5918C307.934 -5.5733 353.434 24.3813 408.622 38.0326C426.623 42.4798 445.094 45.5984 463 48.0259V50C444.953 47.5717 426.322 44.426 408.161 39.9401C352.509 26.1766 306.632 -4.04342 275.481 -47.4481C274.633 -48.6282 273.822 -49.8098 273 -51H275.379Z" fill="#F1ECFF"/>
<path fill-rule="evenodd" clip-rule="evenodd" d="M463 93C458.826 91.8208 454.662 90.6579 450.553 89.5166C406.746 77.2937 361.449 64.6561 322.033 40.2211C284.737 17.0899 256.374 -14.5603 229 -51H231.441C258.418 -15.2219 286.424 15.8341 323.049 38.5498C362.231 62.8432 407.396 75.4421 451.071 87.6271C454.999 88.7219 458.996 89.8377 463 90.962V93Z" fill="#F1ECFF"/>
<path fill-rule="evenodd" clip-rule="evenodd" d="M5.78119 -4.20864C9.60034 -20.2367 15.6538 -36.0278 23.4597 -51H25.6361C17.6889 -35.9059 11.5334 -19.9527 7.66797 -3.74783C-3.88211 44.6552 1.8895 96.2809 26.3713 163.641C48.0836 223.361 72.8033 276.418 99.8524 321.343C122.074 358.251 149.526 388.129 178.592 419.76C186.107 427.948 193.884 436.41 201.494 444.937C209.392 453.775 217.257 462.905 224.864 471.735C235.509 484.096 246.52 496.863 257.758 509.047C259.936 511.392 262.152 513.862 264.423 516.386C278.782 532.329 295.055 550.391 314.344 557.231C319.622 559.098 325.015 560.059 330.388 560.059H330.398C368.752 560.039 400.128 512.005 411.836 491.352C432.945 454.114 448.519 413.616 463 373.713V379.394C449 417.743 433.822 456.507 413.523 492.322C398.768 518.346 368.346 562 330.398 562H330.388C324.799 562 319.18 561.02 313.702 559.078C293.941 552.07 277.5 533.809 262.99 517.696C260.717 515.179 258.503 512.721 256.334 510.375C245.068 498.173 234.057 485.387 223.393 473.025C215.795 464.195 207.933 455.075 200.05 446.237C192.452 437.729 184.674 429.268 177.16 421.089C148.028 389.383 120.508 359.437 98.1935 322.361C71.0795 277.323 46.3034 224.152 24.5432 164.31C-0.0722046 96.5742 -5.86157 44.5996 5.78119 -4.20864Z" fill="#F1ECFF"/>
<path fill-rule="evenodd" clip-rule="evenodd" d="M463 156C461.682 154.381 460.27 152.792 458.724 151.248C440.322 132.901 416.316 121.791 393.102 111.046C389.891 109.549 386.67 108.064 383.477 106.558C343.309 87.6454 291.248 60.5964 244.791 19.0094C236.796 11.8491 228.949 3.85249 220.654 -4.61582C203.805 -21.7868 186.588 -39.3323 167 -51H170.739C189.387 -39.2575 205.876 -22.455 222.027 -5.98006C230.306 2.45974 238.133 10.4294 246.081 17.5512C292.359 58.9778 344.26 85.9328 384.305 104.789C387.489 106.295 390.701 107.78 393.922 109.267C417.287 120.087 441.443 131.274 460.09 149.865C461.116 150.883 462.077 151.927 463 152.989V156Z" fill="#F1ECFF"/>
<path fill-rule="evenodd" clip-rule="evenodd" d="M35.6798 5.53909C42.835 -15.7262 56.6844 -37.0956 75.5567 -51H78.9323C59.2576 -37.4349 44.8429 -15.5859 37.5186 6.15989C24.4237 45.0312 26.3182 90.2633 43.2969 144.45C59.1071 194.869 83.9475 248.359 115.152 299.127C142.632 343.844 177.456 378.618 221.285 417.074C223.235 418.788 225.252 420.577 227.345 422.422C255.298 447.162 293.583 481.05 330.885 481.05H330.895C336.797 481.05 342.547 480.166 347.978 478.432C385.121 466.553 406.521 429.096 424.122 390.377C440.874 353.52 452.667 314.52 463 275.677V283.172C453.092 319.772 441.695 356.411 425.884 391.195C408.105 430.309 386.433 468.182 348.563 480.297C342.943 482.086 337.004 483 330.895 483C330.885 483 330.885 483 330.885 483C292.847 483 254.242 448.837 226.063 423.889C223.97 422.044 221.953 420.257 220.012 418.552C176.042 379.974 141.104 345.077 113.501 300.155C82.2122 249.253 57.2961 195.614 41.4488 145.034C24.3296 90.4422 22.4436 44.8037 35.6798 5.53909Z" fill="#F1ECFF"/>
<path fill-rule="evenodd" clip-rule="evenodd" d="M125.197 1.47194C147.537 1.47194 174.1 13.4569 204.147 37.0888C248.912 72.2996 296.572 102.811 341.403 130.54C344.099 132.208 346.831 133.876 349.571 135.544C367.249 146.294 385.518 157.423 399.218 172.941C418.44 194.726 423.235 222.974 423.867 242.837C424.036 248.328 423.99 254.332 423.706 261.19C415.659 312.269 403.118 364.375 366.249 398.691C352.992 411.016 337.435 417.272 320.014 417.272H320.004C287.902 417.272 254.925 396.468 232.903 380.816C159.098 328.373 102.648 243.684 73.9575 142.375C63.8945 106.834 53.6632 55.82 80.8736 23.2482C92.9543 8.80249 107.861 1.47194 125.197 1.47194ZM320.004 419.223H320.014C337.945 419.223 353.944 412.798 367.56 400.122C404.873 365.402 417.525 312.92 425.638 261.379C425.931 254.359 425.977 248.31 425.807 242.769C425.158 222.586 420.277 193.859 400.67 171.641C386.781 155.906 368.37 144.702 350.571 133.866C347.838 132.199 345.115 130.54 342.42 128.873C297.635 101.17 250.033 70.698 205.334 35.5451C174.947 11.6392 147.981 -0.487061 125.197 -0.487061C107.267 -0.487061 91.8521 7.07968 79.3862 21.9847C51.5808 55.2743 61.907 106.938 72.0919 142.911C100.896 244.645 157.61 329.71 231.782 382.418C254.01 398.22 287.356 419.223 320.004 419.223Z" fill="#F1ECFF"/>
<path opacity="0.7" fill-rule="evenodd" clip-rule="evenodd" d="M376.794 280.546C373.062 303.544 362.19 343.807 331.19 357.168C322.643 360.852 313.457 362.718 303.874 362.718C277.907 362.718 248.301 349.3 215.878 322.824C163.367 279.961 122.587 206.033 111.969 134.479C108.643 112.074 108.502 83.1184 126.715 72.3391C132.388 68.9853 138.935 67.2794 146.191 67.2794C170.972 67.2794 200.323 86.8774 219.742 99.8427C221.928 101.304 224.01 102.689 225.971 103.981C237.221 111.368 248.847 118.536 260.097 125.461C282.881 139.493 306.428 154.002 327.656 170.916C342.893 183.052 355.556 197.571 367.522 216.586C378.246 233.641 377.586 254.981 376.944 275.618C376.898 277.265 376.84 278.915 376.794 280.546ZM303.874 370.547H303.884C314.511 370.538 324.734 368.465 334.252 364.357C368.776 349.479 380.563 306.08 384.511 281.534L384.557 281.017C384.605 279.311 384.652 277.596 384.708 275.862C385.358 255.059 386.083 231.483 374.088 212.403C361.642 192.615 348.423 177.482 332.48 164.782C310.885 147.577 287.131 132.943 264.16 118.791C252.956 111.884 241.366 104.753 230.22 97.4306C228.269 96.1501 226.206 94.7738 224.039 93.3227C203.837 79.8395 173.319 59.4587 146.191 59.4587C137.533 59.4587 129.656 61.5227 122.776 65.5929C105.156 76.0233 98.9387 99.588 104.28 135.629C115.173 209.01 157.055 284.88 210.989 328.9C244.824 356.536 276.077 370.547 303.874 370.547Z" fill="#F1ECFF"/>
<path fill-rule="evenodd" clip-rule="evenodd" d="M198.693 155.576C217.698 155.576 243.683 168.889 253.475 173.902C276.757 185.829 330.163 219.271 323.133 272.035C316.066 297.834 297.891 303.272 283.889 303.272C270.52 303.281 254.662 298.183 240.369 289.288C221.908 277.803 206.06 261.049 194.538 240.828C188.6 230.408 169.888 194.406 178.245 168.542C181.026 159.939 187.903 155.576 198.693 155.576ZM283.889 305.23C298.57 305.23 317.612 299.54 325.028 272.423C332.255 218.291 278.009 184.276 254.351 172.159C244.457 167.09 218.169 153.625 198.693 153.625C186.962 153.625 179.461 158.439 176.389 167.938C167.787 194.566 186.821 231.208 192.851 241.799C204.533 262.302 220.608 279.3 239.349 290.956C253.936 300.029 270.17 305.23 283.889 305.23Z" fill="#F1ECFF"/>
</g>
<defs>
<clipPath id="clip0_945_8651">
<rect width="599" height="534" fill="white" transform="translate(0 -51)"/>
</clipPath>
</defs>
</svg>
